SplineFontDB: 3.2
FontName: Sahel-Black
FullName: Sahel Black
FamilyName: Sahel Black
Weight: Black
Copyright: Copyright (c) 2016 by Saber Rastikerdar. All Rights Reserved.\nBased on DejaVu font.\nNon-Arabic(Latin) glyphs and data are imported from Open Sans font under the Apache License, Version 2.0.
Version: 3.4.0
ItalicAngle: 0
UnderlinePosition: -500
UnderlineWidth: 100
Ascent: 1638
Descent: 410
InvalidEm: 0
LayerCount: 2
Layer: 0 0 "Back" 1
Layer: 1 0 "Fore" 0
PreferredKerning: 4
XUID: [1021 502 1027637223 5856752]
UniqueID: 4111440
UseUniqueID: 1
FSType: 0
OS2Version: 1
OS2_WeightWidthSlopeOnly: 0
OS2_UseTypoMetrics: 1
CreationTime: 1431850356
ModificationTime: 1582306727
PfmFamily: 33
TTFWeight: 900
TTFWidth: 5
LineGap: 0
VLineGap: 0
Panose: 2 11 6 3 3 8 4 2 2 4
OS2TypoAscent: 2200
OS2TypoAOffset: 0
OS2TypoDescent: -1000
OS2TypoDOffset: 0
OS2TypoLinegap: 0
OS2WinAscent: 2200
OS2WinAOffset: 0
OS2WinDescent: 1000
OS2WinDOffset: 0
HheadAscent: 2200
HheadAOffset: 0
HheadDescent: -1000
HheadDOffset: 0
OS2SubXSize: 1331
OS2SubYSize: 1433
OS2SubXOff: 0
OS2SubYOff: 286
OS2SupXSize: 1331
OS2SupYSize: 1433
OS2SupXOff: 0
OS2SupYOff: 983
OS2StrikeYSize: 102
OS2StrikeYPos: 530
OS2CapHeight: 1638
OS2XHeight: 1082
OS2Vendor: '    '
OS2CodePages: 00000041.20080000
OS2UnicodeRanges: 80002003.80000000.00000008.00000000
Lookup: 1 9 0 "Single Substitution 1" { "Single Substitution 1 subtable"  } []
Lookup: 1 9 0 "'fina' Terminal Forms in Arabic lookup 9" { "'fina' Terminal Forms in Arabic lookup 9 subtable"  } ['fina' ('DFLT' <'dflt' > 'arab' <'FAR ' 'KUR ' 'URD ' 'dflt' > ) ]
Lookup: 1 9 0 "'medi' Medial Forms in Arabic lookup 11" { "'medi' Medial Forms in Arabic lookup 11 subtable"  } ['medi' ('DFLT' <'dflt' > 'arab' <'FAR ' 'KUR ' 'URD ' 'dflt' > ) ]
Lookup: 1 9 0 "'init' Initial Forms in Arabic lookup 13" { "'init' Initial Forms in Arabic lookup 13 subtable"  } ['init' ('DFLT' <'dflt' > 'arab' <'FAR ' 'KUR ' 'URD ' 'dflt' > ) ]

StartChar: exclam
Encoding: 33 33 1
GlifName: exclam
Width: 608
GlyphClass: 2
Flags: HW
LayerCount: 2
Fore
SplineSet
440 687 m 2
 433 628 412 599 377 599 c 2
 238 599 l 2
 205 599 185 629 178 688 c 2
 100 1307 l 2
 98 1325 97 1341 97 1357 c 0
 97 1480 165 1542 299 1542 c 2
 328 1542 l 2
 450 1542 511 1480 511 1357 c 0
 511 1342 510 1325 508 1308 c 2
 440 687 l 2
304.025390625 1.6748046875 m 4
 182.424804688 1.6748046875 82.6748046875 102.375 82.6748046875 223.974609375 c 4
 82.6748046875 345.575195312 182.424804688 445.325195312 304.025390625 445.325195312 c 4
 425.625 445.325195312 526.325195312 345.575195312 526.325195312 223.974609375 c 4
 526.325195312 102.375 425.625 1.6748046875 304.025390625 1.6748046875 c 4
EndSplineSet
EndChar

StartChar: period
Encoding: 46 46 2
GlifName: period
Width: 608
GlyphClass: 2
Flags: HW
LayerCount: 2
Fore
SplineSet
304 1.6748046875 m 4
 182.400390625 1.6748046875 81.7001953125 102.375 81.7001953125 223.974609375 c 4
 81.7001953125 345.575195312 182.400390625 445.325195312 304 445.325195312 c 4
 425.599609375 445.325195312 526.299804688 345.575195312 526.299804688 223.974609375 c 4
 526.299804688 102.375 425.599609375 1.6748046875 304 1.6748046875 c 4
EndSplineSet
EndChar

StartChar: colon
Encoding: 58 58 3
GlifName: colon
Width: 608
GlyphClass: 2
Flags: HW
LayerCount: 2
Fore
SplineSet
304.025390625 614.674804688 m 4
 182.424804688 614.674804688 82.6748046875 714.424804688 82.6748046875 836.025390625 c 4
 82.6748046875 957.625 182.424804688 1058.32519531 304.025390625 1058.32519531 c 4
 425.625 1058.32519531 526.325195312 957.625 526.325195312 836.025390625 c 4
 526.325195312 714.424804688 425.625 614.674804688 304.025390625 614.674804688 c 4
304.025390625 1.6748046875 m 0
 182.424804688 1.6748046875 82.6748046875 102.375 82.6748046875 223.974609375 c 0
 82.6748046875 345.575195312 182.424804688 445.325195312 304.025390625 445.325195312 c 0
 425.625 445.325195312 526.325195312 345.575195312 526.325195312 223.974609375 c 0
 526.325195312 102.375 425.625 1.6748046875 304.025390625 1.6748046875 c 0
EndSplineSet
EndChar

StartChar: uni060C
Encoding: 1548 1548 5
GlifName: afii57388
Width: 608
GlyphClass: 2
Flags: HW
LayerCount: 2
Fore
SplineSet
299.216796875 0.1484375 m 0
 160.944335938 0.1484375 87.96875 114.244140625 87.96875 229.469726562 c 0
 87.96875 550.82421875 288.177734375 781.276367188 457.176757812 847.8515625 c 4
 533.993164062 878.578125 596.727539062 847.8515625 525.03125 794.079101562 c 4
 399.5625 699.336914062 317.139648438 550.82421875 315.860351562 417.673828125 c 1
 472.055664062 407.431640625 507.903320312 288.364257812 507.903320312 212.827148438 c 0
 507.903320312 105.284179688 432.366210938 0.1484375 299.216796875 0.1484375 c 0
EndSplineSet
EndChar

StartChar: uni0615
Encoding: 1557 1557 6
GlifName: uni0615
Width: 0
GlyphClass: 4
Flags: HW
AnchorPoint: "Anchor-10" 702 1946 mark 0
AnchorPoint: "Anchor-9" 702 1946 mark 0
AnchorPoint: "Anchor-1" 554 2839 basemark 0
AnchorPoint: "Anchor-1" 702 1946 mark 0
LayerCount: 2
Fore
SplineSet
998 2475 m 4
 1109 2475 1170 2406 1170 2284 c 4
 1170 2080 967 2018 727 2018 c 6
 420 2018 l 5
 367 2118 l 5
 504 2118 l 5
 504 2789 l 5
 606 2789 l 5
 606 2169 l 5
 747 2373 878 2475 998 2475 c 4
1070 2274 m 4
 1070 2330 1045 2358 996 2358 c 4
 915 2358 808 2278 676 2118 c 5
 778 2118 l 6
 931 2118 1070 2150 1070 2274 c 4
EndSplineSet
EndChar

StartChar: uni061B
Encoding: 1563 1563 7
GlifName: uni061B_
Width: 608
GlyphClass: 2
Flags: HW
LayerCount: 2
Fore
SplineSet
299.216796875 580.1484375 m 0
 160.944335938 580.1484375 87.96875 694.244140625 87.96875 809.469726562 c 0
 87.96875 1130.82421875 288.177734375 1361.27636719 457.176757812 1427.8515625 c 4
 533.993164062 1458.578125 596.727539062 1427.8515625 525.03125 1374.07910156 c 4
 399.5625 1279.33691406 317.139648438 1130.82421875 315.860351562 997.673828125 c 1
 472.055664062 987.431640625 507.903320312 868.364257812 507.903320312 792.827148438 c 0
 507.903320312 685.284179688 432.366210938 580.1484375 299.216796875 580.1484375 c 0
304 1.6748046875 m 0
 182.400390625 1.6748046875 81.7001953125 102.375 81.7001953125 223.974609375 c 0
 81.7001953125 345.575195312 182.400390625 445.325195312 304 445.325195312 c 0
 425.599609375 445.325195312 526.299804688 345.575195312 526.299804688 223.974609375 c 0
 526.299804688 102.375 425.599609375 1.6748046875 304 1.6748046875 c 0
EndSplineSet
EndChar

StartChar: uni061F
Encoding: 1567 1567 8
GlifName: uni061F_
Width: 1049
GlyphClass: 2
Flags: HW
LayerCount: 2
Fore
SplineSet
623.974609375 1.6748046875 m 4
 502.375 1.6748046875 401.674804688 102.375 401.674804688 223.974609375 c 4
 401.674804688 345.575195312 502.375 445.325195312 623.974609375 445.325195312 c 4
 745.575195312 445.325195312 845.325195312 345.575195312 845.325195312 223.974609375 c 4
 845.325195312 102.375 745.575195312 1.6748046875 623.974609375 1.6748046875 c 4
582 1209 m 0
 493 1209 427 1169 427 1084 c 0
 427 1043 465 995 541 938 c 2
 594 899 l 2
 704 817 758 731 758 641 c 2
 758 626 l 2
 758 608 746 599 721 599 c 2
 526 599 l 2
 496 599 480 608 480 625 c 2
 480 635 l 2
 480 662 438 702 354 754 c 2
 250 819 l 2
 122 898 60 998 60 1124 c 0
 60 1366 248 1545 540 1545 c 0
 789 1544 976 1378 976 1109 c 0
 976 1064 974 1028 969 1001 c 1
 783 1000 l 1
 778 1136 720 1209 582 1209 c 0
EndSplineSet
EndChar

StartChar: uni0621
Encoding: 1569 1569 9
GlifName: uni0621
Width: 841
GlyphClass: 2
Flags: HW
AnchorPoint: "Anchor-7" 465.18 -43.0596 basechar 0
AnchorPoint: "Anchor-10" 431.84 1121.48 basechar 0
LayerCount: 2
Fore
SplineSet
758.450195312 391.099609375 m 2
 741.709960938 150.23046875 l 1
 526.879882812 126.049804688 305.540039062 65.599609375 79.5498046875 -32.0498046875 c 1
 80.48046875 299.959960938 l 1
 199.51953125 334.370117188 l 1
 153.01953125 388.309570312 129.76953125 450.620117188 129.76953125 523.16015625 c 0
 129.76953125 725.900390625 261.830078125 870.049804688 449.690429688 870.049804688 c 0
 534.3203125 870.049804688 659.870117188 830.059570312 703.580078125 785.419921875 c 1
 654.290039062 580.8203125 l 1
 605.9296875 605 544.780273438 617.08984375 502.700195312 617.08984375 c 0
 401.330078125 617.08984375 341.809570312 584.540039062 324.139648438 519.440429688 c 1
 324.139648438 476.66015625 404.120117188 436.669921875 456.200195312 410.629882812 c 1
 481.309570312 412.490234375 522.23046875 420.860351562 578.030273438 434.809570312 c 2
 674.75 458.990234375 l 2
 742.639648438 477.58984375 764.030273438 472.009765625 758.450195312 391.099609375 c 2
EndSplineSet
EndChar

StartChar: uni0627
Encoding: 1575 1575 15
GlifName: uni0627
Width: 539
GlyphClass: 2
Flags: HW
AnchorPoint: "Anchor-10" 218 1633 basechar 0
AnchorPoint: "Anchor-7" 250 -201 basechar 0
LayerCount: 2
Fore
SplineSet
37 1368 m 5
 362 1570 l 6
 394 1591 412 1573 416 1523 c 4
 436 1233 446 965 446 695 c 4
 446 350 423 145 377 81 c 4
 327 12 250 -4 134 -4 c 5
 129 366 114 948 37 1368 c 5
EndSplineSet
Substitution2: "'fina' Terminal Forms in Arabic lookup 9 subtable" uniFE8E
EndChar

StartChar: uni062D
Encoding: 1581 1581 21
GlifName: uni062D_
Width: 1362
GlyphClass: 2
Flags: HW
AnchorPoint: "Anchor-7" 707 -861 basechar 0
AnchorPoint: "Anchor-10" 695 1293 basechar 0
LayerCount: 2
Fore
SplineSet
791 -302 m 0
 956 -302 1098 -291 1217 -268 c 0
 1296 -255 1255 -334 1225 -387 c 2
 1107 -593 l 2
 1072 -654 1026 -686 967 -691 c 0
 912 -695 862 -697 817 -697 c 0
 354 -696 122 -533 122 -90 c 0
 122 282 333 540 664 649 c 1
 549 675 469 689 423 689 c 0
 359 689 292 648 223 565 c 1
 81 641 l 1
 136 840 232 1057 433 1057 c 0
 488 1057 684 1007 1018 908 c 0
 1085 888 1161 878 1248 878 c 0
 1279 878 1295 877 1291 858 c 2
 1207 495 l 1
 838 414 350 248 350 -64 c 0
 350 -225 499 -302 791 -302 c 0
EndSplineSet
Substitution2: "'fina' Terminal Forms in Arabic lookup 9 subtable" uniFEA2
Substitution2: "'medi' Medial Forms in Arabic lookup 11 subtable" uniFEA4
Substitution2: "'init' Initial Forms in Arabic lookup 13 subtable" uniFEA3
EndChar

StartChar: uni062F
Encoding: 1583 1583 23
GlifName: uni062F_
Width: 1048
GlyphClass: 2
Flags: HW
AnchorPoint: "Anchor-10" 459 1434 basechar 0
AnchorPoint: "Anchor-7" 432 -196 basechar 0
LayerCount: 2
Fore
SplineSet
263 616 m 1
 262 607 262 590 262 568 c 0
 262 520 330 496 465 496 c 0
 650 496 737 539 737 564 c 0
 737 652 456 837 333 909 c 1
 460 1230 l 2
 472 1260 492 1263 517 1244 c 0
 790 1035 977 836 977 511 c 0
 977 184 798 2 464 2 c 0
 200 2 65 126 65 377 c 0
 65 456 80 541 110 632 c 1
 263 616 l 1
EndSplineSet
PairPos2: "'kern' Horizontal Kerning lookup 0 subtable 4" uni06AF dx=-120 dy=0 dh=-120 dv=0 dx=0 dy=0 dh=0 dv=0
PairPos2: "'kern' Horizontal Kerning lookup 0 subtable 4" uniFB94 dx=-120 dy=0 dh=-120 dv=0 dx=0 dy=0 dh=0 dv=0
PairPos2: "'kern' Horizontal Kerning lookup 0 subtable 4" uni06A9 dx=-120 dy=0 dh=-120 dv=0 dx=0 dy=0 dh=0 dv=0
PairPos2: "'kern' Horizontal Kerning lookup 0 subtable 4" uniFB90 dx=-120 dy=0 dh=-120 dv=0 dx=0 dy=0 dh=0 dv=0
Substitution2: "'fina' Terminal Forms in Arabic lookup 9 subtable" uniFEAA
EndChar

StartChar: uni0631
Encoding: 1585 1585 25
GlifName: uni0631
Width: 781
GlyphClass: 2
Flags: HW
AnchorPoint: "Anchor-7" 371 -696 basechar 0
AnchorPoint: "Anchor-10" 507 1115 basechar 0
LayerCount: 2
Fore
SplineSet
508 782 m 1
 650 624 721 415 721 156 c 0
 721 -87 632 -405 533 -483 c 0
 502 -508 446 -520 365 -520 c 2
 121 -520 l 2
 -108 -520 -88 -449 47 -362 c 0
 323 -184 497 62 497 124 c 0
 497 160 446 235 273 436 c 1
 508 782 l 1
EndSplineSet
PairPos2: "'kern' Horizontal Kerning lookup 0 subtable 3" uni0621 dx=-128 dy=0 dh=-128 dv=0 dx=0 dy=0 dh=0 dv=0
PairPos2: "'kern' Horizontal Kerning lookup 0 subtable 3" uni06C0 dx=-128 dy=0 dh=-128 dv=0 dx=0 dy=0 dh=0 dv=0
PairPos2: "'kern' Horizontal Kerning lookup 0 subtable 2" uni0648 dx=-43 dy=0 dh=-43 dv=0 dx=0 dy=0 dh=0 dv=0
PairPos2: "'kern' Horizontal Kerning lookup 0 subtable 0" uni067E dx=-128 dy=0 dh=-128 dv=0 dx=0 dy=0 dh=0 dv=0
PairPos2: "'kern' Horizontal Kerning lookup 0 subtable 0" uniFB56 dx=-128 dy=0 dh=-128 dv=0 dx=0 dy=0 dh=0 dv=0
PairPos2: "'kern' Horizontal Kerning lookup 0 subtable 0" uni06AF dx=-235 dy=0 dh=-235 dv=0 dx=0 dy=0 dh=0 dv=0
PairPos2: "'kern' Horizontal Kerning lookup 0 subtable 0" uniFB94 dx=-235 dy=0 dh=-235 dv=0 dx=0 dy=0 dh=0 dv=0
PairPos2: "'kern' Horizontal Kerning lookup 0 subtable 0" uni0622 dx=-150 dy=0 dh=-150 dv=0 dx=0 dy=0 dh=0 dv=0
PairPos2: "'kern' Horizontal Kerning lookup 0 subtable 0" uni0627 dx=-150 dy=0 dh=-150 dv=0 dx=0 dy=0 dh=0 dv=0
PairPos2: "'kern' Horizontal Kerning lookup 0 subtable 0" uni0628 dx=-128 dy=0 dh=-128 dv=0 dx=0 dy=0 dh=0 dv=0
PairPos2: "'kern' Horizontal Kerning lookup 0 subtable 0" uniFE91 dx=-53 dy=0 dh=-53 dv=0 dx=0 dy=0 dh=0 dv=0
PairPos2: "'kern' Horizontal Kerning lookup 0 subtable 0" uni0629 dx=-128 dy=0 dh=-128 dv=0 dx=0 dy=0 dh=0 dv=0
PairPos2: "'kern' Horizontal Kerning lookup 0 subtable 0" uni062A dx=-128 dy=0 dh=-128 dv=0 dx=0 dy=0 dh=0 dv=0
PairPos2: "'kern' Horizontal Kerning lookup 0 subtable 0" uniFE97 dx=-128 dy=0 dh=-128 dv=0 dx=0 dy=0 dh=0 dv=0
PairPos2: "'kern' Horizontal Kerning lookup 0 subtable 0" uni062B dx=-128 dy=0 dh=-128 dv=0 dx=0 dy=0 dh=0 dv=0
PairPos2: "'kern' Horizontal Kerning lookup 0 subtable 0" uniFE9B dx=-128 dy=0 dh=-128 dv=0 dx=0 dy=0 dh=0 dv=0
PairPos2: "'kern' Horizontal Kerning lookup 0 subtable 0" uniFE9F dx=-128 dy=0 dh=-128 dv=0 dx=0 dy=0 dh=0 dv=0
PairPos2: "'kern' Horizontal Kerning lookup 0 subtable 0" uniFEA3 dx=-128 dy=0 dh=-128 dv=0 dx=0 dy=0 dh=0 dv=0
PairPos2: "'kern' Horizontal Kerning lookup 0 subtable 0" uniFEA7 dx=-128 dy=0 dh=-128 dv=0 dx=0 dy=0 dh=0 dv=0
PairPos2: "'kern' Horizontal Kerning lookup 0 subtable 0" uni062F dx=-128 dy=0 dh=-128 dv=0 dx=0 dy=0 dh=0 dv=0
PairPos2: "'kern' Horizontal Kerning lookup 0 subtable 0" uni0630 dx=-128 dy=0 dh=-128 dv=0 dx=0 dy=0 dh=0 dv=0
PairPos2: "'kern' Horizontal Kerning lookup 0 subtable 0" uni0633 dx=-128 dy=0 dh=-128 dv=0 dx=0 dy=0 dh=0 dv=0
PairPos2: "'kern' Horizontal Kerning lookup 0 subtable 0" uniFEB3 dx=-128 dy=0 dh=-128 dv=0 dx=0 dy=0 dh=0 dv=0
PairPos2: "'kern' Horizontal Kerning lookup 0 subtable 0" uni0634 dx=-128 dy=0 dh=-128 dv=0 dx=0 dy=0 dh=0 dv=0
PairPos2: "'kern' Horizontal Kerning lookup 0 subtable 0" uniFEB7 dx=-128 dy=0 dh=-128 dv=0 dx=0 dy=0 dh=0 dv=0
PairPos2: "'kern' Horizontal Kerning lookup 0 subtable 0" uni0635 dx=-128 dy=0 dh=-128 dv=0 dx=0 dy=0 dh=0 dv=0
PairPos2: "'kern' Horizontal Kerning lookup 0 subtable 0" uniFEBB dx=-128 dy=0 dh=-128 dv=0 dx=0 dy=0 dh=0 dv=0
PairPos2: "'kern' Horizontal Kerning lookup 0 subtable 0" uni0636 dx=-128 dy=0 dh=-128 dv=0 dx=0 dy=0 dh=0 dv=0
PairPos2: "'kern' Horizontal Kerning lookup 0 subtable 0" uniFEBF dx=-128 dy=0 dh=-128 dv=0 dx=0 dy=0 dh=0 dv=0
PairPos2: "'kern' Horizontal Kerning lookup 0 subtable 0" uni0637 dx=-128 dy=0 dh=-128 dv=0 dx=0 dy=0 dh=0 dv=0
PairPos2: "'kern' Horizontal Kerning lookup 0 subtable 0" uniFEC3 dx=-128 dy=0 dh=-128 dv=0 dx=0 dy=0 dh=0 dv=0
PairPos2: "'kern' Horizontal Kerning lookup 0 subtable 0" uni0638 dx=-128 dy=0 dh=-128 dv=0 dx=0 dy=0 dh=0 dv=0
PairPos2: "'kern' Horizontal Kerning lookup 0 subtable 0" uniFEC7 dx=-128 dy=0 dh=-128 dv=0 dx=0 dy=0 dh=0 dv=0
PairPos2: "'kern' Horizontal Kerning lookup 0 subtable 0" uniFECB dx=-128 dy=0 dh=-128 dv=0 dx=0 dy=0 dh=0 dv=0
PairPos2: "'kern' Horizontal Kerning lookup 0 subtable 0" uniFECF dx=-128 dy=0 dh=-128 dv=0 dx=0 dy=0 dh=0 dv=0
PairPos2: "'kern' Horizontal Kerning lookup 0 subtable 0" uni0641 dx=-128 dy=0 dh=-128 dv=0 dx=0 dy=0 dh=0 dv=0
PairPos2: "'kern' Horizontal Kerning lookup 0 subtable 0" uniFED3 dx=-128 dy=0 dh=-128 dv=0 dx=0 dy=0 dh=0 dv=0
PairPos2: "'kern' Horizontal Kerning lookup 0 subtable 0" uni0642 dx=-43 dy=0 dh=-43 dv=0 dx=0 dy=0 dh=0 dv=0
PairPos2: "'kern' Horizontal Kerning lookup 0 subtable 0" uniFED7 dx=-128 dy=0 dh=-128 dv=0 dx=0 dy=0 dh=0 dv=0
PairPos2: "'kern' Horizontal Kerning lookup 0 subtable 0" uniFEDB dx=-213 dy=0 dh=-213 dv=0 dx=0 dy=0 dh=0 dv=0
PairPos2: "'kern' Horizontal Kerning lookup 0 subtable 0" uni0644 dx=-43 dy=0 dh=-43 dv=0 dx=0 dy=0 dh=0 dv=0
PairPos2: "'kern' Horizontal Kerning lookup 0 subtable 0" uni0645 dx=-128 dy=0 dh=-128 dv=0 dx=0 dy=0 dh=0 dv=0
PairPos2: "'kern' Horizontal Kerning lookup 0 subtable 0" uniFEE3 dx=-128 dy=0 dh=-128 dv=0 dx=0 dy=0 dh=0 dv=0
PairPos2: "'kern' Horizontal Kerning lookup 0 subtable 0" uniFEE7 dx=-128 dy=0 dh=-128 dv=0 dx=0 dy=0 dh=0 dv=0
PairPos2: "'kern' Horizontal Kerning lookup 0 subtable 0" uni0647 dx=-128 dy=0 dh=-128 dv=0 dx=0 dy=0 dh=0 dv=0
PairPos2: "'kern' Horizontal Kerning lookup 0 subtable 0" uni0649 dx=-43 dy=0 dh=-43 dv=0 dx=0 dy=0 dh=0 dv=0
PairPos2: "'kern' Horizontal Kerning lookup 0 subtable 0" uni06A9 dx=-213 dy=0 dh=-213 dv=0 dx=0 dy=0 dh=0 dv=0
PairPos2: "'kern' Horizontal Kerning lookup 0 subtable 0" uniFB90 dx=-213 dy=0 dh=-213 dv=0 dx=0 dy=0 dh=0 dv=0
PairPos2: "'kern' Horizontal Kerning lookup 0 subtable 0" uniFEDF dx=-128 dy=0 dh=-128 dv=0 dx=0 dy=0 dh=0 dv=0
PairPos2: "'kern' Horizontal Kerning lookup 0 subtable 0" uniFB7C dx=-115 dy=0 dh=-115 dv=0 dx=0 dy=0 dh=0 dv=0
PairPos2: "'kern' Horizontal Kerning lookup 0 subtable 0" uniFEEB dx=-128 dy=0 dh=-128 dv=0 dx=0 dy=0 dh=0 dv=0
PairPos2: "'kern' Horizontal Kerning lookup 0 subtable 0" uni06CC dx=-43 dy=0 dh=-43 dv=0 dx=0 dy=0 dh=0 dv=0
PairPos2: "'kern' Horizontal Kerning lookup 0 subtable 0" uni0631 dx=-43 dy=0 dh=-43 dv=0 dx=0 dy=0 dh=0 dv=0
PairPos2: "'kern' Horizontal Kerning lookup 0 subtable 0" uni0632 dx=-43 dy=0 dh=-43 dv=0 dx=0 dy=0 dh=0 dv=0
PairPos2: "'kern' Horizontal Kerning lookup 0 subtable 0" uniFB58 dx=20 dy=0 dh=20 dv=0 dx=0 dy=0 dh=0 dv=0
Substitution2: "'fina' Terminal Forms in Arabic lookup 9 subtable" uniFEAE
EndChar

StartChar: uni0633
Encoding: 1587 1587 27
GlifName: uni0633
Width: 2385
GlyphClass: 2
Flags: HW
AnchorPoint: "Anchor-7" 714 -777 basechar 0
AnchorPoint: "Anchor-10" 1681 1087.4 basechar 0
LayerCount: 2
Fore
SplineSet
1930 495 m 0
 2003 495 2049 518 2049 580 c 0
 2049 630 2029 667 1960 791 c 1
 2139 1013 l 2
 2156 1034 2173 1035 2189 1012 c 0
 2273 882 2314 743 2314 594 c 0
 2314 331 2181 0 1911 -0 c 0
 1829 0 1755 57 1684 171 c 1
 1614 59 1538 0 1455 0 c 0
 1421 0 1381 11 1337 34 c 1
 1308 -344 1114 -566 719 -567 c 0
 313 -567 77 -359 77 31 c 0
 77 203 120 376 204 549 c 1
 381 494 l 1
 347 379 329 283 329 208 c 0
 329 -22 484 -96 725 -96 c 0
 979 -96 1109 24 1109 95 c 0
 1109 137 1019 274 932 402 c 1
 1144 698 l 2
 1159 718 1173 711 1189 691 c 0
 1211 660 1228 637 1248 610 c 0
 1302 535 1371 497 1457 497 c 0
 1538 497 1584 540 1597 627 c 2
 1616 759 l 1
 1765 759 l 1
 1790 633 l 2
 1808 541 1855 495 1930 495 c 0
EndSplineSet
Substitution2: "'fina' Terminal Forms in Arabic lookup 9 subtable" uniFEB2
Substitution2: "'medi' Medial Forms in Arabic lookup 11 subtable" uniFEB4
Substitution2: "'init' Initial Forms in Arabic lookup 13 subtable" uniFEB3
EndChar

StartChar: uni0635
Encoding: 1589 1589 29
GlifName: uni0635
Width: 2616
GlyphClass: 2
Flags: HW
AnchorPoint: "Anchor-7" 714 -777 basechar 0
AnchorPoint: "Anchor-10" 2085 1314 basechar 0
LayerCount: 2
Fore
SplineSet
1441 497 m 5
 1651 763 1912 1051 2211 1051 c 4
 2414 1051 2545 917 2545 703 c 4
 2545 317 2256 0 1790 0 c 6
 1588 0 l 6
 1492 0 1407 11 1337 34 c 5
 1307 -354 1111 -566 699 -567 c 4
 309 -567 77 -349 77 31 c 4
 77 203 120 376 204 549 c 5
 381 494 l 5
 347 379 329 283 329 208 c 4
 329 -15 481 -96 705 -96 c 4
 1044 -96 1110 61 1110 99 c 4
 1110 132 1016 277 932 402 c 5
 1142 694 l 6
 1157 715 1173 714 1191 691 c 6
 1251 613 l 6
 1310 536 1374 497 1441 497 c 5
2297 572 m 4
 2297 602 2282 691 2092 691 c 4
 1943 691 1795 598 1671 497 c 5
 1913 497 l 6
 2212 497 2297 528 2297 572 c 4
EndSplineSet
Substitution2: "'fina' Terminal Forms in Arabic lookup 9 subtable" uniFEBA
Substitution2: "'medi' Medial Forms in Arabic lookup 11 subtable" uniFEBC
Substitution2: "'init' Initial Forms in Arabic lookup 13 subtable" uniFEBB
EndChar

StartChar: uni0637
Encoding: 1591 1591 31
GlifName: uni0637
Width: 1594
GlyphClass: 2
Flags: HW
AnchorPoint: "Anchor-10" 508 1633 basechar 0
AnchorPoint: "Anchor-7" 732 -191 basechar 0
LayerCount: 2
Fore
SplineSet
1524 696 m 0
 1524 257 1171 0 769 0 c 2
 299 0 l 1
 56 361 l 2
 -46 512 51 495 94 495 c 2
 408 495 l 1
 408 496 408 497 408 498 c 1
 397 865 373 1157 338 1372 c 1
 651 1575 l 2
 682 1596 704 1590 704 1539 c 2
 704 811 l 1
 885 969 1047 1049 1191 1049 c 0
 1394 1049 1524 912 1524 696 c 0
1276 571 m 0
 1276 600 1261 689 1071 689 c 0
 926 689 771 596 650 494 c 1
 897 494 l 2
 1214 494 1276 533 1276 571 c 0
EndSplineSet
Substitution2: "'fina' Terminal Forms in Arabic lookup 9 subtable" uniFEC2
Substitution2: "'medi' Medial Forms in Arabic lookup 11 subtable" uniFEC4
Substitution2: "'init' Initial Forms in Arabic lookup 13 subtable" uniFEC3
EndChar

StartChar: uni0639
Encoding: 1593 1593 33
GlifName: uni0639
Width: 1283
GlyphClass: 2
Flags: HW
AnchorPoint: "Anchor-7" 707 -861 basechar 0
AnchorPoint: "Anchor-10" 659 1463 basechar 0
LayerCount: 2
Fore
SplineSet
751 -302 m 0
 909 -302 1048 -291 1167 -268 c 0
 1247 -255 1204 -334 1175 -387 c 2
 1057 -593 l 2
 1023 -652 980 -677 924 -688 c 0
 880 -697 829 -697 767 -697 c 0
 314 -696 86 -525 86 -91 c 0
 86 155 191 349 402 490 c 1
 322 574 292 668 292 772 c 0
 292 1027 470 1222 704 1222 c 0
 846 1222 961 1171 1053 1068 c 1
 1032 991 1013 926 991 854 c 1
 901 892 828 911 772 911 c 0
 592 911 500 824 500 774 c 0
 500 735 537 686 687 614 c 1
 879 653 1018 674 1102 675 c 0
 1157 675 1170 655 1160 602 c 2
 1093 272 l 1
 737 272 315 150 315 -78 c 0
 315 -229 462 -302 751 -302 c 0
EndSplineSet
Substitution2: "'fina' Terminal Forms in Arabic lookup 9 subtable" uniFECA
Substitution2: "'medi' Medial Forms in Arabic lookup 11 subtable" uniFECC
Substitution2: "'init' Initial Forms in Arabic lookup 13 subtable" uniFECB
EndChar

StartChar: uni0640
Encoding: 1600 1600 35
GlifName: afii57440
Width: 245
GlyphClass: 2
Flags: HW
AnchorPoint: "Anchor-10" 130 1097 basechar 0
AnchorPoint: "Anchor-7" 130 -194 basechar 0
LayerCount: 2
Fore
SplineSet
-60 171 m 2
 -60 303 l 2
 -60 431 -42 495 -5 495 c 2
 250 495 l 2
 267 495 275 431 275 303 c 2
 275 171 l 2
 275 57 267 0 250 0 c 2
 -5 0 l 2
 -42 0 -60 57 -60 171 c 2
EndSplineSet
EndChar

StartChar: uni0643
Encoding: 1603 1603 38
GlifName: uni0643
Width: 1905
GlyphClass: 2
Flags: HW
AnchorPoint: "Anchor-10" 970 1525 basechar 0
AnchorPoint: "Anchor-7" 884 -200 basechar 0
LayerCount: 2
Fore
SplineSet
891 858 m 4
 965 858 1076 875 1076 934 c 4
 1076 964 1031 988 940 1008 c 4
 827 1032 771 1097 771 1205 c 4
 771 1333 878 1407 1089 1436 c 4
 1123 1442 1142 1431 1132 1401 c 6
 1096 1297 l 5
 933 1281 850 1247 850 1197 c 4
 850 1167 895 1144 986 1128 c 4
 1104 1107 1166 1051 1166 934 c 4
 1166 788 1043 720 887 720 c 4
 810 720 745 731 671 755 c 5
 684 896 l 5
 756 871 825 858 891 858 c 4
1812 698 m 2
 1812 472 1754 315 1647 208 c 0
 1484 46 1208 0 852 0 c 0
 397 0 78 120 78 539 c 0
 78 694 116 846 191 994 c 1
 346 938 l 1
 326 866 316 805 316 756 c 0
 316 619 418 491 882 491 c 0
 1252 491 1403 522 1464 576 c 0
 1497 605 1503 642 1503 683 c 0
 1503 870 1474 1145 1441 1371 c 1
 1774 1573 l 1
 1799 1590 1812 1570 1812 1531 c 2
 1812 698 l 2
EndSplineSet
Substitution2: "'fina' Terminal Forms in Arabic lookup 9 subtable" uniFEDA
Substitution2: "'medi' Medial Forms in Arabic lookup 11 subtable" uniFEDC
Substitution2: "'init' Initial Forms in Arabic lookup 13 subtable" uniFEDB
EndChar

StartChar: uni0644
Encoding: 1604 1604 39
GlifName: uni0644
Width: 1433
GlyphClass: 2
Flags: HW
AnchorPoint: "Anchor-10" 566 1040 basechar 0
AnchorPoint: "Anchor-7" 703 -763 basechar 0
LayerCount: 2
Fore
SplineSet
1340 183 m 2
 1354 -274 1147 -567 701 -567 c 0
 317 -567 77 -338 77 31 c 0
 77 217 120 389 204 549 c 1
 381 494 l 1
 347 379 329 283 329 208 c 0
 329 -16 481 -96 708 -96 c 0
 879 -96 1048 -21 1048 158 c 0
 1048 317 988 902 935 1372 c 1
 1234 1554 l 2
 1271 1578 1298 1571 1300 1514 c 2
 1340 183 l 2
EndSplineSet
Substitution2: "'fina' Terminal Forms in Arabic lookup 9 subtable" uniFEDE
Substitution2: "'medi' Medial Forms in Arabic lookup 11 subtable" uniFEE0
Substitution2: "'init' Initial Forms in Arabic lookup 13 subtable" uniFEDF
EndChar

StartChar: uni0645
Encoding: 1605 1605 40
GlifName: uni0645
Width: 1207
GlyphClass: 2
Flags: HW
AnchorPoint: "Anchor-10" 687 1305 basechar 0
AnchorPoint: "Anchor-7" 258 -887 basechar 0
LayerCount: 2
Fore
SplineSet
451 74 m 0
 412 74 378 67 351 55 c 1
 365 -389 l 2
 368 -472 327 -542 239 -639 c 0
 190 -693 99 -789 94 -653 c 0
 88 -478 84 -293 84 -56 c 0
 84 215 124 433 324 523 c 1
 400 805 510 998 710 998 c 0
 940 998 1138 719 1139 454 c 0
 1139 299 1034 12 896 12 c 0
 889 12 882 13 875 14 c 0
 695 54 555 74 451 74 c 0
519 534 m 1
 611 534 729 518 810 503 c 0
 852 495 883 490 896 490 c 0
 900 490 902 491 902 492 c 0
 902 507 829 696 694 696 c 0
 618 696 556 619 519 534 c 1
EndSplineSet
Substitution2: "'init' Initial Forms in Arabic lookup 13 subtable" uniFEE3
Substitution2: "'medi' Medial Forms in Arabic lookup 11 subtable" uniFEE4
Substitution2: "'fina' Terminal Forms in Arabic lookup 9 subtable" uniFEE2
EndChar

StartChar: uni0647
Encoding: 1607 1607 42
GlifName: uni0647
Width: 947
GlyphClass: 2
Flags: HW
AnchorPoint: "Anchor-10" 405 1361 basechar 0
AnchorPoint: "Anchor-7" 453 -196 basechar 0
LayerCount: 2
Fore
SplineSet
479 2 m 0
 218 2 75 168 75 419 c 0
 75 612 155 818 317 1034 c 0
 344 1071 375 1083 418 1067 c 0
 714 952 877 784 877 500 c 0
 877 223 749 2 479 2 c 0
411 681 m 1
 345 601 312 544 312 508 c 0
 312 455 389 444 469 444 c 0
 569 444 646 470 646 526 c 0
 646 590 527 640 411 681 c 1
EndSplineSet
Substitution2: "'fina' Terminal Forms in Arabic lookup 9 subtable" uniFEEA
Substitution2: "'medi' Medial Forms in Arabic lookup 11 subtable" uniFEEC
Substitution2: "'init' Initial Forms in Arabic lookup 13 subtable" uniFEEB
EndChar

StartChar: uni0648
Encoding: 1608 1608 43
GlifName: uni0648
Width: 861
GlyphClass: 2
Flags: HW
AnchorPoint: "Anchor-7" 431 -696 basechar 0
AnchorPoint: "Anchor-10" 450 1159.4 basechar 0
LayerCount: 2
Fore
SplineSet
507 -2 m 1
 481 -4 456 -5 429 -5 c 0
 199 -5 78 143 78 368 c 0
 78 589 186 962 443 962 c 0
 719 962 801 623 801 301 c 0
 801 43 732 -378 601 -483 c 0
 570 -508 514 -520 433 -520 c 2
 189 -520 l 2
 -40 -520 -17 -454 115 -362 c 0
 303 -231 434 -111 507 -2 c 1
301 542 m 0
 301 489 358 485 428 485 c 0
 482 485 522 485 583 486 c 1
 551 569 507 642 408 643 c 0
 350 642 301 605 301 542 c 0
EndSplineSet
Substitution2: "'fina' Terminal Forms in Arabic lookup 9 subtable" uniFEEE
EndChar

StartChar: uni0649
Encoding: 1609 1609 44
GlifName: uni0649
Width: 1590
GlyphClass: 2
Flags: HW
AnchorPoint: "Anchor-7" 747 -735 basechar 0
AnchorPoint: "Anchor-10" 673 994 basechar 0
LayerCount: 2
Fore
SplineSet
1349 583 m 0
 1197 583 1083 544 1005 466 c 1
 1243 395 l 2
 1398 348 1461 317 1461 152 c 0
 1461 -268 1154 -547 730 -547 c 0
 320 -547 78 -351 78 51 c 0
 78 249 130 447 233 644 c 1
 402 581 l 1
 354 446 330 331 330 238 c 0
 330 19 471 -90 754 -90 c 0
 1068 -90 1202 17 1202 26 c 0
 1202 29 1198 31 1190 33 c 2
 922 107 l 2
 789 143 733 174 733 263 c 0
 733 622 996 984 1327 984 c 0
 1406 984 1472 963 1526 920 c 5
 1474 571 l 1
 1439 579 1397 583 1349 583 c 0
EndSplineSet
Substitution2: "'fina' Terminal Forms in Arabic lookup 9 subtable" uniFEF0
Substitution2: "'medi' Medial Forms in Arabic lookup 11 subtable" uniFBE9
Substitution2: "'init' Initial Forms in Arabic lookup 13 subtable" uniFBE8
EndChar

StartChar: uni064B
Encoding: 1611 1611 46
GlifName: uni064B_
Width: 10
VWidth: 2316
GlyphClass: 4
Flags: HW
AnchorPoint: "Anchor-10" 583.551 1123.65 mark 0
AnchorPoint: "Anchor-9" 583.551 1123.65 mark 0
AnchorPoint: "Anchor-1" 553.285 1596.25 basemark 0
AnchorPoint: "Anchor-1" 583.551 1123.65 mark 0
LayerCount: 2
Fore
SplineSet
327 1076 m 1
 327 1180 l 1
 782 1366 l 1
 782 1263 l 1
 327 1076 l 1
327 1288 m 1
 327 1392 l 1
 782 1578 l 1
 782 1475 l 1
 327 1288 l 1
EndSplineSet
EndChar

StartChar: uni064C
Encoding: 1612 1612 47
GlifName: uni064C_
Width: 0
VWidth: 2316
GlyphClass: 4
Flags: HW
AnchorPoint: "Anchor-10" 680.906 1278.67 mark 0
AnchorPoint: "Anchor-9" 680.906 1278.67 mark 0
AnchorPoint: "Anchor-1" 637.739 1852.46 basemark 0
AnchorPoint: "Anchor-1" 680.906 1278.67 mark 0
LayerCount: 2
Fore
SplineSet
489 1629 m 0
 489 1726.34403608 557.578720581 1791 652 1791 c 0
 746.9412073 1791 814 1727.26136914 814 1628 c 0
 814 1589 804 1547 787 1507 c 1
 804 1504 819 1503 830 1503 c 1
 830 1427 l 1
 810 1428 786 1430 754 1436 c 1
 690.818294178 1315.56736709 597.606445312 1250.9921875 471.8671875 1250.9921875 c 0
 339.267578125 1250.9921875 270.984375 1343.99511719 268 1530 c 1
 347 1544 l 1
 350 1400 392 1329 473 1329 c 0
 547 1329 614 1373 673 1448 c 1
 567.206830152 1485.02760945 489 1533.83885907 489 1629 c 0
709 1523 m 1
 723.053510163 1555.79152371 736 1594.57522464 736 1627 c 0
 736 1675.05260976 699.641537636 1711 656 1711 c 0
 605.751193998 1711 569 1677.13488171 569 1625 c 0
 569 1567.8418395 644.003567546 1540.204938 709 1523 c 1
EndSplineSet
EndChar

StartChar: uni064D
Encoding: 1613 1613 48
GlifName: uni064D_
Width: 3
VWidth: 2316
GlyphClass: 4
Flags: HW
AnchorPoint: "Anchor-7" 545.278 32.7109 mark 0
AnchorPoint: "Anchor-6" 545.278 32.7109 mark 0
AnchorPoint: "Anchor-0" 595.022 -407.025 basemark 0
AnchorPoint: "Anchor-0" 545.278 32.7109 mark 0
LayerCount: 2
Fore
SplineSet
335 -446 m 1
 335 -342 l 1
 791 -156 l 1
 791 -260 l 1
 335 -446 l 1
335 -234 m 1
 335 -130 l 1
 791 56 l 1
 791 -48 l 1
 335 -234 l 1
EndSplineSet
EndChar

StartChar: uni064E
Encoding: 1614 1614 49
GlifName: uni064E_
Width: 0
VWidth: 2316
GlyphClass: 4
Flags: HW
AnchorPoint: "Anchor-10" 545.66 1397.63 mark 0
AnchorPoint: "Anchor-9" 545.66 1397.63 mark 0
AnchorPoint: "Anchor-1" 541.396 1651.77 basemark 0
AnchorPoint: "Anchor-1" 545.66 1397.63 mark 0
LayerCount: 2
Fore
SplineSet
296 1349 m 1
 296 1453 l 1
 752 1639 l 1
 752 1535 l 1
 296 1349 l 1
EndSplineSet
EndChar

StartChar: uni064F
Encoding: 1615 1615 50
GlifName: uni064F_
Width: 10
VWidth: 2316
GlyphClass: 4
Flags: HW
AnchorPoint: "Anchor-10" 591.295 1359.37 mark 0
AnchorPoint: "Anchor-9" 591.295 1359.37 mark 0
AnchorPoint: "Anchor-1" 542.134 1865.4 basemark 0
AnchorPoint: "Anchor-1" 591.295 1359.37 mark 0
LayerCount: 2
Fore
SplineSet
723 1427 m 1
 695 1427 669 1429 643 1433 c 1
 578 1342 420 1318 256 1309 c 1
 256 1387 l 1
 387 1399 519 1405 566 1455 c 1
 474.464114966 1471.64288819 380 1532.46344456 380 1626 c 0
 380 1723.76653486 448.787416907 1788 543 1788 c 0
 637.483259282 1788 706 1723.30209735 706 1625 c 0
 706 1586 697 1547 680 1506 c 1
 693 1504 708 1502 723 1502 c 1
 723 1427 l 1
600 1520 m 1
 614.053510163 1552.79152371 627 1591.57522464 627 1624 c 0
 627 1672.52693762 591.420717666 1707 547 1707 c 0
 496.353069173 1707 460 1674.44739485 460 1622 c 0
 460 1564.8418395 535.003567546 1537.204938 600 1520 c 1
EndSplineSet
EndChar

StartChar: uni0650
Encoding: 1616 1616 51
GlifName: uni0650
Width: 10
VWidth: 2316
GlyphClass: 4
Flags: HW
AnchorPoint: "Anchor-7" 571.144 -44.8242 mark 0
AnchorPoint: "Anchor-6" 571.144 -44.8242 mark 0
AnchorPoint: "Anchor-0" 619.091 -324.624 basemark 0
AnchorPoint: "Anchor-0" 571.144 -44.8242 mark 0
LayerCount: 2
Fore
SplineSet
343 -346 m 1
 343 -242 l 1
 798 -56 l 1
 798 -159 l 1
 343 -346 l 1
EndSplineSet
EndChar

StartChar: uni0651
Encoding: 1617 1617 52
GlifName: uni0651
Width: 0
GlyphClass: 4
Flags: HW
AnchorPoint: "Anchor-10" 590 1402 mark 0
AnchorPoint: "Anchor-9" 590 1402 mark 0
AnchorPoint: "Anchor-1" 560 1807 basemark 0
AnchorPoint: "Anchor-1" 590 1402 mark 0
LayerCount: 2
Fore
SplineSet
414 1505 m 0
 460.554581036 1505 498 1530.89453125 498 1581.96386719 c 2
 498.973632812 1720.37207031 l 5
 541.404296875 1734.08300781 559.760742188 1734.65332031 605.09765625 1738.57324219 c 1
 607.000976562 1633.89160156 l 2
 608.05859375 1585.27246094 641.26712243 1566 690 1566 c 0
 728.844432177 1566 748 1589.17810713 748 1631 c 0
 748 1663.81431597 747.954101562 1705.78027344 747.080078125 1736.36035156 c 1
 849.901367188 1807.31054688 l 1
 855.64453125 1752.34375 860 1690.82324219 860 1648 c 0
 860 1470.91210938 800.217773438 1416 701 1416 c 0
 651.962890625 1416 610.6875 1432.32324219 575.411132812 1459.54101562 c 1
 538.189453125 1391.12890625 484.779296875 1355 408 1355 c 0
 306.127929688 1355 246 1427.56054688 246 1549 c 0
 246 1584.99121094 249.770507812 1648.29296875 254.369140625 1699.84667969 c 1
 349.0859375 1663.59082031 l 1
 351.001416631 1578.88098611 l 2
 352.028342611 1535.75009495 368.598234856 1505 414 1505 c 0
EndSplineSet
EndChar

StartChar: uni0652
Encoding: 1618 1618 53
GlifName: uni0652
Width: 7
VWidth: 2316
GlyphClass: 4
Flags: HW
AnchorPoint: "Anchor-10" 615.219 1271.43 mark 0
AnchorPoint: "Anchor-9" 615.219 1271.43 mark 0
AnchorPoint: "Anchor-1" 589.537 1682.66 basemark 0
AnchorPoint: "Anchor-1" 615.219 1271.43 mark 0
LayerCount: 2
Fore
SplineSet
421.07421875 1461.82128906 m 128
 421.07421875 1558.0090031 498.217186311 1635.14941406 594.40234375 1635.14941406 c 128
 690.589197165 1635.14941406 767.731445312 1558.00592629 767.731445312 1461.82128906 c 128
 767.731445312 1365.63505466 690.585602301 1288.49316406 594.40234375 1288.49316406 c 128
 498.215665264 1288.49316406 421.07421875 1365.63709537 421.07421875 1461.82128906 c 128
502.666015625 1461.02246094 m 0
 501.783217866 1409.2985377 544.56744345 1367.02229206 596.758789062 1366.92871094 c 0
 648.762845901 1367.02318612 691.048987476 1409.12177258 690.8515625 1461.02246094 c 0
 691.04919912 1512.91897674 648.759953131 1554.96284711 596.758789062 1555.11425781 c 0
 544.563299839 1554.96425972 501.782224782 1512.74495934 502.666015625 1461.02246094 c 0
EndSplineSet
EndChar

StartChar: uni0653
Encoding: 1619 1619 54
GlifName: uni0653
Width: 0
GlyphClass: 4
Flags: HW
AnchorPoint: "Anchor-10" 485 1591 mark 0
AnchorPoint: "Anchor-9" 485 1591 mark 0
AnchorPoint: "Anchor-1" 455 2067 basemark 0
AnchorPoint: "Anchor-1" 485 1591 mark 0
LayerCount: 2
Fore
SplineSet
323 1944 m 0
 360 1944 420 1938 479 1931 c 0
 537 1924 595 1919 631 1919 c 0
 670 1919 705 1919 773 1940 c 0
 963 1998 806 1789 744 1719 c 0
 701 1671 632 1660 526 1660 c 0
 479 1660 423 1663 361 1668 c 1
 309 1667 249 1635 180 1573 c 5
 148 1598 125 1618 103 1642 c 5
 168 1873 223 1944 323 1944 c 0
EndSplineSet
EndChar

StartChar: uni0657
Encoding: 1623 1623 57
GlifName: uni0657
Width: 4
VWidth: 2316
GlyphClass: 4
Flags: HW
AnchorPoint: "Anchor-10" 513.285 1400.55 mark 0
AnchorPoint: "Anchor-9" 513.285 1400.55 mark 0
AnchorPoint: "Anchor-1" 537.285 2069.85 basemark 0
AnchorPoint: "Anchor-1" 513.285 1400.55 mark 0
LayerCount: 2
Fore
SplineSet
265 1805 m 1
 305 1804 348 1801 395 1796 c 1
 396 1797 l 2
 496 1939 625 2018 785 2033 c 1
 785 1955 l 1
 662 1935 562 1876 486 1778 c 1
 573.073233818 1752.51515108 658 1697.36135892 658 1599 c 0
 658 1507.71378279 593.059658194 1438 501 1438 c 0
 408.64267729 1438 332 1502.56128158 332 1603 c 0
 332 1632 339 1672 355 1722 c 1
 328 1724 299 1726 265 1726 c 1
 265 1805 l 1
501 1516 m 0
 549.036312445 1516 577 1548.90280457 577 1597 c 0
 577 1658.28540997 503.060368911 1693.27134074 437 1709 c 1
 419 1666 410 1632 410 1605 c 0
 410 1552.84187884 451.285616311 1516 501 1516 c 0
EndSplineSet
EndChar

StartChar: uni065A
Encoding: 1626 1626 58
GlifName: uni065A_
Width: 1135
VWidth: 2316
GlyphClass: 4
Flags: HW
AnchorPoint: "Anchor-10" 573.285 1350.55 mark 0
AnchorPoint: "Anchor-9" 573.285 1350.55 mark 0
AnchorPoint: "Anchor-1" 571.012 1862.38 basemark 0
AnchorPoint: "Anchor-1" 573.285 1350.55 mark 0
LayerCount: 2
Fore
SplineSet
502 1444 m 5
 309 1768 l 5
 433 1768 l 5
 573 1528 l 5
 714 1768 l 5
 838 1768 l 5
 644 1444 l 5
 502 1444 l 5
EndSplineSet
EndChar

StartChar: uni0660
Encoding: 1632 1632 59
GlifName: afii57392
Width: 896
GlyphClass: 2
Flags: HW
LayerCount: 2
Fore
SplineSet
451 853 m 5
 756 547 l 5
 445 236 l 5
 140 542 l 5
 451 853 l 5
EndSplineSet
EndChar

StartChar: uni0661
Encoding: 1633 1633 60
GlifName: afii57393
Width: 788
GlyphClass: 2
Flags: HW
LayerCount: 2
Fore
SplineSet
436 1502 m 0
 547 1188 608 787 608 311 c 0
 608 223 601 153 588 99 c 0
 573 37 477 10 334 -2 c 1
 325 447 244 841 91 1237 c 5
 360 1519 l 2
 393 1550 419 1549 436 1502 c 0
EndSplineSet
EndChar

StartChar: uni0662
Encoding: 1634 1634 61
GlifName: afii57394
Width: 1220
GlyphClass: 2
Flags: HW
LayerCount: 2
Fore
SplineSet
712 1205 m 0
 836 1205 906 1280 921 1432 c 2
 928 1502 l 1
 1129 1502 l 1
 1129 1419 l 1
 1125 983 976 764 683 764 c 0
 658 764 625 766 586 770 c 1
 600 635 608 483 608 321 c 0
 608 234 601 161 588 99 c 0
 575 37 479 10 334 -2 c 1
 325 462 244 842 91 1237 c 5
 360 1519 l 2
 393 1548 421 1549 436 1502 c 0
 464 1417 483 1356 493 1321 c 0
 516 1243 589 1205 712 1205 c 0
EndSplineSet
EndChar

StartChar: uni0663
Encoding: 1635 1635 62
GlifName: afii57395
Width: 1385
GlyphClass: 2
Flags: HW
LayerCount: 2
Fore
SplineSet
586 772 m 1
 600 637 608 484 608 321 c 0
 608 234 601 161 588 99 c 0
 575 37 479 10 334 -2 c 1
 325 462 244 842 91 1237 c 1
 360 1519 l 2
 393 1548 421 1549 436 1502 c 0
 464 1417 483 1356 493 1321 c 0
 515 1245 560 1205 627 1205 c 0
 687 1205 721 1250 728 1341 c 2
 738 1460 l 1
 934 1460 l 1
 933 1354 l 2
 933 1254 960 1202 1016 1202 c 0
 1060 1202 1087 1253 1096 1356 c 2
 1106 1479 l 1
 1308 1479 l 1
 1307 1410 l 2
 1302 996 1201 790 1002 790 c 0
 920 790 856 832 808 916 c 1
 755 832 691 785 614 774 c 0
 605 773 596 772 586 772 c 1
EndSplineSet
EndChar

StartChar: uni0664
Encoding: 1636 1636 63
GlifName: afii57396
Width: 982
GlyphClass: 2
Flags: HW
LayerCount: 2
Fore
SplineSet
439 464 m 0
 523 424 681 402 910 400 c 1
 904 129 l 2
 902 21 896 10 817 10 c 0
 500 10 91 83 91 310 c 0
 91 443 223 598 378 701 c 1
 180 802 81 905 81 1008 c 0
 81 1159 284 1307 692 1496 c 4
 792 1544 848 1538 823 1414 c 6
 756 1102 l 1
 681 1089 586 1065 475 1022 c 0
 470 1020 470 1020 475 1017 c 0
 577 953 681 901 792 853 c 1
 798 799 802 748 806 696 c 1
 656 630 524 555 438 469 c 0
 435 466 435 466 439 464 c 0
EndSplineSet
EndChar

StartChar: uni0665
Encoding: 1637 1637 64
GlifName: afii57397
Width: 1196
GlyphClass: 2
Flags: HW
LayerCount: 2
Fore
SplineSet
581 941 m 1
 448 778 382 649 382 557 c 0
 382 450 451 397 588 397 c 0
 744 397 822 448 822 549 c 0
 822 657 742 788 581 941 c 1
308 1173 m 1
 506 1524 l 5
 908 1168 1116 836 1116 514 c 0
 1116 211 895 -11 584 -11 c 0
 287 -11 67 196 67 484 c 0
 67 656 171 867 382 1118 c 1
 308 1173 l 1
EndSplineSet
EndChar

StartChar: uni0666
Encoding: 1638 1638 65
GlifName: afii57398
Width: 1259
GlyphClass: 2
Flags: HW
LayerCount: 2
Fore
SplineSet
975 1471 m 1
 1005 602 1037 350 1150 217 c 1
 940 -20 l 1
 793 124 741 218 691 1041 c 1
 597 1026 506 1019 419 1019 c 0
 269 1019 192.013671875 1039.14355469 132 1083 c 4
 80 1121 69 1248 69 1404 c 4
 69 1536 85 1523 181 1487 c 0
 279 1450 400 1432 547 1432 c 0
 670 1432 832 1452 975 1471 c 1
EndSplineSet
EndChar

StartChar: uni0667
Encoding: 1639 1639 66
GlifName: afii57399
Width: 1321
GlyphClass: 2
Flags: HW
LayerCount: 2
Fore
SplineSet
1270 1224 m 1
 1054 861 891 499 780 -2 c 1
 551 -2 l 1
 443 513 277 875 51 1221 c 1
 273 1535 l 2
 298.577738707 1571.17752232 323 1546 343 1507 c 0
 459 1267 565 952 662 561 c 1
 755 979 851 1289 948 1492 c 0
 967 1533 994 1560 1019 1529 c 2
 1270 1224 l 1
EndSplineSet
EndChar

StartChar: uni0668
Encoding: 1640 1640 67
GlifName: afii57400
Width: 1321
GlyphClass: 2
Flags: HW
LayerCount: 2
Fore
SplineSet
1270 296 m 5
 1019 -8 l 6
 992.920819473 -39.5859397621 968 -15 948 28 c 4
 851 231 755 541 662 959 c 5
 565 568 459 253 343 13 c 4
 323 -26 296.171807769 -47.8789164293 273 -15 c 6
 51 300 l 5
 277 647 443 1007 551 1522 c 5
 780 1522 l 5
 891 1021 1054 659 1270 296 c 5
EndSplineSet
EndChar

StartChar: uni0669
Encoding: 1641 1641 68
GlifName: afii57401
Width: 1130
GlyphClass: 2
Flags: HW
LayerCount: 2
Fore
SplineSet
483 985 m 0
 533 985 566 989 620 997 c 1
 607 1111 578 1182 465 1182 c 0
 392 1182 323 1127 323 1045 c 0
 323 992 383 985 483 985 c 0
479 1528 m 0
 764 1528 893 1238 898 958 c 0
 904 557 955 340 1051 226 c 1
 854 -20 l 1
 719 55 646 265 637 612 c 1
 566 602 523 597 466 597 c 0
 203 597 88 715 88 964 c 0
 88 1240 242 1528 479 1528 c 0
EndSplineSet
EndChar

StartChar: uni066A
Encoding: 1642 1642 69
GlifName: afii57381
Width: 1033
VWidth: 4036
GlyphClass: 2
Flags: HW
LayerCount: 2
Fore
SplineSet
712 1371 m 5
 953 1262 l 5
 322 -14 l 5
 81 95 l 5
 712 1371 l 5
577 253 m 0
 577 359 663 447 770 447 c 0
 877 447 963 359 963 253 c 0
 963 147 876 60 770 60 c 0
 664 60 577 144 577 253 c 0
70 1099 m 0
 70 1205 156 1293 263 1293 c 0
 370 1293 456 1205 456 1099 c 0
 456 993 369 906 263 906 c 0
 157 906 70 990 70 1099 c 0
EndSplineSet
EndChar

StartChar: uni066B
Encoding: 1643 1643 70
GlifName: uni066B_
Width: 772
VWidth: 2950
GlyphClass: 2
Flags: HW
LayerCount: 2
Fore
SplineSet
502.791015625 851.46875 m 1
 740.05859375 750.583007812 l 1
 230.264648438 -426.797851562 l 1
 -10.1142578125 -323.25 l 5
 502.791015625 851.46875 l 1
EndSplineSet
PairPos2: "'kern' Horizontal Kerning lookup 0 subtable 6" uni06F2 dx=-130 dy=0 dh=-130 dv=0 dx=0 dy=0 dh=0 dv=0
PairPos2: "'kern' Horizontal Kerning lookup 0 subtable 6" uni06F3 dx=-130 dy=0 dh=-130 dv=0 dx=0 dy=0 dh=0 dv=0
PairPos2: "'kern' Horizontal Kerning lookup 0 subtable 6" uni06F4 dx=-110 dy=0 dh=-110 dv=0 dx=0 dy=0 dh=0 dv=0
EndChar

StartChar: uni066C
Encoding: 1644 1644 71
GlifName: uni066C_
Width: 503
GlyphClass: 2
Flags: HW
LayerCount: 2
Fore
SplineSet
84.7451171875 142.168945312 m 4
 84.7451171875 233.676757812 138.768554688 299.827148438 234.686523438 299.827148438 c 4
 346.038085938 299.827148438 396.752929688 232.575195312 396.752929688 95.8642578125 c 4
 396.752929688 -65.1005859375 337.217773438 -213.9375 150.895507812 -325.290039062 c 4
 74.82421875 -370.493164062 35.1328125 -312.060546875 71.515625 -280.087890625 c 4
 194.995117188 -172.04296875 228.0703125 -83.84375 228.0703125 -32.025390625 c 5
 129.94921875 18.689453125 84.7451171875 44.0478515625 84.7451171875 142.168945312 c 4
EndSplineSet
PairPos2: "'kern' Horizontal Kerning lookup 0 subtable 6" uni06F2 dx=-118 dy=0 dh=-118 dv=0 dx=0 dy=0 dh=0 dv=0
PairPos2: "'kern' Horizontal Kerning lookup 0 subtable 6" uni06F3 dx=-134 dy=0 dh=-134 dv=0 dx=0 dy=0 dh=0 dv=0
PairPos2: "'kern' Horizontal Kerning lookup 0 subtable 6" uni06F4 dx=-118 dy=0 dh=-118 dv=0 dx=0 dy=0 dh=0 dv=0
EndChar

StartChar: uni066D
Encoding: 1645 1645 72
GlifName: afii63167
Width: 1734
GlyphClass: 2
Flags: HW
LayerCount: 2
Fore
SplineSet
124 1219 m 1
 692 1219 l 1
 869 1758 l 1
 1046 1219 l 1
 1614 1219 l 1
 1155 883 l 1
 1331 344 l 1
 869 678 l 1
 407 344 l 1
 583 883 l 1
 124 1219 l 1
EndSplineSet
EndChar

StartChar: uni066E
Encoding: 1646 1646 73
GlifName: uni066E_
Width: 1815
GlyphClass: 2
Flags: HW
AnchorPoint: "Anchor-10" 799 1301 basechar 0
AnchorPoint: "Anchor-7" 656 -183 basechar 0
LayerCount: 2
Fore
SplineSet
834 0 m 0
 393 0 78 127 78 539 c 0
 78 694 116 846 191 994 c 1
 346 938 l 1
 326 866 316 805 316 747 c 0
 316 562 528 491 853 491 c 0
 1185 491 1483 513 1483 589 c 0
 1483 612 1439 710 1393 808 c 1
 1575 1033 l 2
 1590 1049 1601 1057 1614 1037 c 0
 1701 897 1745 754 1745 559 c 0
 1745 121 1381 0 834 0 c 0
EndSplineSet
Substitution2: "'fina' Terminal Forms in Arabic lookup 9 subtable" uni066E.fina
EndChar

StartChar: uni066F
Encoding: 1647 1647 74
GlifName: uni066F_
Width: 1438
GlyphClass: 2
Flags: HW
AnchorPoint: "Anchor-10" 558 1195 basechar 0
AnchorPoint: "Anchor-7" 579 -667 basechar 0
LayerCount: 2
Fore
SplineSet
986 176 m 0
 783 176 696 256 696 436 c 0
 696 735 827 950 1022 950 c 0
 1281 950 1368 623 1368 335 c 0
 1368 -186 1193 -466 709 -466 c 0
 311 -466 77 -253 77 132 c 0
 77 317 120 490 204 650 c 1
 381 595 l 1
 347 479 329 384 329 309 c 0
 329 77 488 5 734 5 c 0
 970 5 1114 68 1166 191 c 1
 1097 181 1040 176 986 176 c 0
1022 511 m 0
 1067 511 1131 515 1164 521 c 1
 1124 612 1072 657 1006 657 c 0
 941 657 892 621 892 560 c 0
 892 513 945 511 1022 511 c 0
EndSplineSet
Substitution2: "'fina' Terminal Forms in Arabic lookup 9 subtable" uni066F.fina
EndChar

StartChar: uni0670
Encoding: 1648 1648 75
GlifName: uni0670
Width: 0
GlyphClass: 4
Flags: HW
AnchorPoint: "Anchor-10" 781 1785 mark 0
AnchorPoint: "Anchor-9" 781 1785 mark 0
AnchorPoint: "Anchor-1" 739 2276 basemark 0
AnchorPoint: "Anchor-1" 781 1785 mark 0
LayerCount: 2
Fore
SplineSet
728 1797 m 1
 666 2167 l 1
 821 2271 l 1
 821 1838 l 1
 728 1797 l 1
EndSplineSet
EndChar

StartChar: uni0674
Encoding: 1652 1652 76
GlifName: uni0674
Width: 802
GlyphClass: 2
Flags: HW
LayerCount: 2
Fore
SplineSet
177 1783 m 1
 205 1956 l 1
 224 1967 272 1987 291 1997 c 1
 232 2030 203 2072 203 2140 c 0
 203 2288 302 2376 436 2376 c 0
 511 2376 549 2346 611 2285 c 1
 564 2175 l 1
 504 2198 474 2210 434 2210 c 0
 356 2210 346 2168 346 2155 c 0
 346 2142 350 2085 436 2085 c 0
 475 2085 497 2092 523 2099 c 0
 592 2117 618 2117 618 2069 c 2
 618 1956 l 1
 439 1899 313 1851 177 1783 c 1
EndSplineSet
EndChar

StartChar: uni0686
Encoding: 1670 1670 78
GlifName: afii57507
Width: 1362
GlyphClass: 2
Flags: HW
AnchorPoint: "Anchor-7" 707 -861 basechar 0
AnchorPoint: "Anchor-10" 695 1293 basechar 0
LayerCount: 2
Fore
SplineSet
824.5 -229.848632812 m 1
 690.451171875 -95.7998046875 l 1
 824.5 38.248046875 l 1
 958.548828125 -95.7998046875 l 1
 824.5 -229.848632812 l 1
965.299804688 -20.248046875 m 1
 831.251953125 113.799804688 l 1
 965.299804688 247.848632812 l 1
 1099.34863281 113.799804688 l 1
 965.299804688 -20.248046875 l 1
683.700195312 -20.248046875 m 5
 549.651367188 113.799804688 l 1
 683.700195312 247.848632812 l 1
 817.748046875 113.799804688 l 1
 683.700195312 -20.248046875 l 5
EndSplineSet
Refer: 21 1581 N 1 0 0 1 0 0 2
Substitution2: "'fina' Terminal Forms in Arabic lookup 9 subtable" uniFB7B
Substitution2: "'medi' Medial Forms in Arabic lookup 11 subtable" uniFB7D
Substitution2: "'init' Initial Forms in Arabic lookup 13 subtable" uniFB7C
EndChar

StartChar: uni06A1
Encoding: 1697 1697 80
GlifName: uni06A_1
Width: 1730
GlyphClass: 2
Flags: HW
AnchorPoint: "Anchor-10" 740 1477 basechar 0
AnchorPoint: "Anchor-7" 634 -169 basechar 0
LayerCount: 2
Fore
SplineSet
1306 917 m 0
 1351 917 1415 921 1448 927 c 1
 1408 1018 1355 1064 1289 1064 c 0
 1224 1064 1176 1028 1176 967 c 0
 1176 920 1229 917 1306 917 c 0
1277 593 m 0
 1068 593 980 665 980 842 c 0
 980 1143 1106 1357 1312 1357 c 0
 1565 1357 1661 1003 1661 704 c 0
 1661 399.573971317 1609.51902708 222.274426776 1476 121.756219298 c 4
 1348.99497653 26.1420017659 1147.76142802 -4.26325641456e-14 846 0 c 0
 397 0 79 122 79 539 c 0
 79 720 117 872 192 995 c 1
 345 938 l 1
 326 868 317 808 317 759 c 0
 317 500 644 490 961 490 c 0
 1320 490 1431 507 1450 607 c 1
 1385 597 1328 593 1277 593 c 0
EndSplineSet
Substitution2: "'init' Initial Forms in Arabic lookup 13 subtable" uni06A1.init
Substitution2: "'medi' Medial Forms in Arabic lookup 11 subtable" uni06A1.medi
Substitution2: "'fina' Terminal Forms in Arabic lookup 9 subtable" uni06A1.fina
EndChar

StartChar: uni06A9
Encoding: 1705 1705 81
GlifName: uni06A_9
Width: 1860
GlyphClass: 2
Flags: HW
AnchorPoint: "Anchor-10" 1229 1573 basechar 0
AnchorPoint: "Anchor-7" 817 -210 basechar 0
LayerCount: 2
Fore
SplineSet
1330 1115 m 1
 1554 927 1669 745 1669 565 c 0
 1669 154 1295 0 804 0 c 0
 386 0 78 141 78 539 c 0
 78 694 116 846 191 994 c 1
 346 938 l 1
 326 866 316 805 316 756 c 0
 316 556 542 491 826 491 c 0
 1134 491 1347 529 1347 599 c 0
 1347 674 1039 914 921 1005 c 1
 996 1348 l 1
 1770 1597 l 1
 1805 1609 1814.57617188 1603.32324219 1810 1569 c 2
 1768 1254 l 1
 1330 1115 l 1
EndSplineSet
Substitution2: "'init' Initial Forms in Arabic lookup 13 subtable" uniFB90
Substitution2: "'medi' Medial Forms in Arabic lookup 11 subtable" uniFB91
Substitution2: "'fina' Terminal Forms in Arabic lookup 9 subtable" uniFB8F
EndChar

StartChar: uni06AF
Encoding: 1711 1711 82
GlifName: uni06A_F_
Width: 1860
GlyphClass: 2
Flags: HW
AnchorPoint: "Anchor-10" 1283 1703 basechar 0
AnchorPoint: "Anchor-7" 817 -210 basechar 0
LayerCount: 2
Fore
SplineSet
1329 1006 m 1
 1551 843 1662 686 1662 529 c 0
 1662 142 1280 0 804 0 c 0
 386 0 78 141 78 539 c 0
 78 694 116 846 191 994 c 1
 346 938 l 1
 326 866 316 805 316 756 c 0
 316 559 542 491 826 491 c 0
 1156 491 1330 520 1330 580 c 0
 1330 624 1057 829 922 900 c 1
 995 1239 l 1
 1769 1488 l 1
 1804 1500 1813.57617188 1494.32324219 1809 1460 c 2
 1767 1145 l 1
 1329 1006 l 1
EndSplineSet
Refer: 273 -1 N 1.1342 0 0 1.1342 1015 -601 2
Substitution2: "'fina' Terminal Forms in Arabic lookup 9 subtable" uniFB93
Substitution2: "'medi' Medial Forms in Arabic lookup 11 subtable" uniFB95
Substitution2: "'init' Initial Forms in Arabic lookup 13 subtable" uniFB94
EndChar

StartChar: uni06BA
Encoding: 1722 1722 83
GlifName: afii57514
Width: 1427
GlyphClass: 2
Flags: HW
LayerCount: 2
Fore
SplineSet
699 -429 m 0
 312 -429 77 -212 77 169 c 0
 77 341 120 515 204 688 c 1
 381 633 l 1
 347 518 329 421 329 344 c 0
 329 124 483 43 705 43 c 0
 1022 43 1110 184 1110 238 c 0
 1110 275 1017 415 932 540 c 1
 1144 835 l 2
 1158 855 1172 855 1187 837 c 0
 1300 691 1356 497 1356 255 c 0
 1356 -166 1136 -429 699 -429 c 0
EndSplineSet
Substitution2: "'fina' Terminal Forms in Arabic lookup 9 subtable" uniFB9F
EndChar

StartChar: uni06F0
Encoding: 1776 1776 86
GlifName: uni06F_0
Width: 896
VWidth: 2311
GlyphClass: 2
Flags: HW
LayerCount: 2
Fore
SplineSet
448 420.541015625 m 128
 508.083007812 420.541015625 558.333984375 470.791992188 558.333984375 530.875 c 128
 558.333984375 590.958007812 508.083007812 641.208984375 448 641.208984375 c 128
 387.916992188 641.208984375 337.666015625 590.958007812 337.666015625 530.875 c 128
 337.666015625 470.791992188 387.916992188 420.541015625 448 420.541015625 c 128
448 203.705078125 m 132
 267.924804688 203.705078125 119.749023438 353.939453125 119.749023438 534.014648438 c 132
 119.749023438 714.08984375 267.924804688 863.294921875 448 863.294921875 c 132
 628.075195312 863.294921875 776.250976562 714.08984375 776.250976562 534.014648438 c 132
 776.250976562 353.939453125 628.075195312 203.705078125 448 203.705078125 c 132
EndSplineSet
PairPos2: "'kern' Horizontal Kerning lookup 0 subtable 6" uni06F2 dx=-40 dy=0 dh=-40 dv=0 dx=0 dy=0 dh=0 dv=0
PairPos2: "'kern' Horizontal Kerning lookup 0 subtable 6" uni06F3 dx=-40 dy=0 dh=-40 dv=0 dx=0 dy=0 dh=0 dv=0
PairPos2: "'kern' Horizontal Kerning lookup 0 subtable 6" uni06F4 dx=-40 dy=0 dh=-40 dv=0 dx=0 dy=0 dh=0 dv=0
PairPos2: "'kern' Horizontal Kerning lookup 0 subtable 6" uni06F6 dx=-40 dy=0 dh=-40 dv=0 dx=0 dy=0 dh=0 dv=0
PairPos2: "'kern' Horizontal Kerning lookup 0 subtable 6" uni06F7 dx=-40 dy=0 dh=-40 dv=0 dx=0 dy=0 dh=0 dv=0
EndChar

StartChar: uni06F4
Encoding: 1780 1780 90
GlifName: uni06F_4
Width: 1288
GlyphClass: 2
Flags: HW
LayerCount: 2
Fore
SplineSet
933 1235 m 0
 847 1235 761 1208 761 1109 c 0
 761 1048 861 1030 936 1030 c 0
 1004 1030 1090 1047 1173 1083 c 1
 1207 838 l 1
 1122 753 1009 709 862 709 c 0
 756 709 677 734 585 785 c 1
 599 642 608 486 608 321 c 0
 608 234 601 161 588 99 c 0
 575 37 479 10 334 -2 c 1
 325 447 244 841 91 1237 c 5
 360 1519 l 2
 392 1549 422 1550 436 1502 c 0
 477 1359 513 1236 584 1172 c 1
 583 1183 583 1194 583 1205 c 0
 583 1361 688 1516 892 1516 c 0
 1007 1516 1095 1460 1171 1366 c 1
 1109 1191 l 1
 1054 1213 983 1235 933 1235 c 0
EndSplineSet
PairPos2: "'kern' Horizontal Kerning lookup 0 subtable 6" uni06F5 dx=-70 dy=0 dh=-70 dv=0 dx=0 dy=0 dh=0 dv=0
PairPos2: "'kern' Horizontal Kerning lookup 0 subtable 6" uni06F8 dx=-70 dy=0 dh=-70 dv=0 dx=0 dy=0 dh=0 dv=0
EndChar

StartChar: uni06F5
Encoding: 1781 1781 91
GlifName: uni06F_5
Width: 1256
GlyphClass: 2
Flags: HW
LayerCount: 2
Fore
SplineSet
700 602 m 1
 729 480 771 385 853 385 c 0
 913 385 944 410 944 461 c 0
 944 567 826 737 590 970 c 1
 409 708 318 540 318 464 c 0
 318 411 350 385 415 385 c 0
 494 385 530 486 561 605 c 1
 700 602 l 1
638 134 m 1
 578 44 494 0 387 0 c 0
 176 0 71 123 71 367 c 0
 71 589 178 864 391 1194 c 1
 349 1242 l 1
 532 1511 l 2
 544 1529 561 1528 581 1507 c 0
 972 1116 1186 728 1186 384 c 0
 1186 128 1088 0 894 0 c 0
 789 0 704 44 638 134 c 1
EndSplineSet
PairPos2: "'kern' Horizontal Kerning lookup 0 subtable 6" uni06F2 dx=-100 dy=0 dh=-100 dv=0 dx=0 dy=0 dh=0 dv=0
PairPos2: "'kern' Horizontal Kerning lookup 0 subtable 6" uni06F3 dx=-100 dy=0 dh=-100 dv=0 dx=0 dy=0 dh=0 dv=0
PairPos2: "'kern' Horizontal Kerning lookup 0 subtable 6" uni06F4 dx=-70 dy=0 dh=-70 dv=0 dx=0 dy=0 dh=0 dv=0
PairPos2: "'kern' Horizontal Kerning lookup 0 subtable 6" uni06F6 dx=-70 dy=0 dh=-70 dv=0 dx=0 dy=0 dh=0 dv=0
PairPos2: "'kern' Horizontal Kerning lookup 0 subtable 6" uni06F7 dx=-70 dy=0 dh=-70 dv=0 dx=0 dy=0 dh=0 dv=0
EndChar

StartChar: uni06F6
Encoding: 1782 1782 92
GlifName: uni06F_6
Width: 1120
GlyphClass: 2
Flags: MW
LayerCount: 2
Fore
SplineSet
591 1196 m 0
 430 1196 379 1086 379 1050 c 0
 379 974 467 912 674 912 c 1
 786 977 866 1021 913 1044 c 0
 952 1063 982 1079 1003 1079 c 0
 1038 1079 1051.70680101 1062.72846348 1043 1008 c 2
 994 700 l 1
 780 605 508 332 264 -55 c 5
 111 67 l 6
 84.3819235892 88.2248713864 72.2571480623 109.07858314 86 140 c 4
 158 302 268 471 380 620 c 1
 187 718 103 836 103 1034 c 0
 103 1254 284 1527 545 1527 c 0
 685 1527 780 1479 889 1382 c 1
 800 1146 l 1
 723 1179 654 1196 591 1196 c 0
EndSplineSet
EndChar

StartChar: uniFB7B
Encoding: 64379 64379 101
GlifName: uniF_B_7B_
Width: 1387
GlyphClass: 2
Flags: HW
AnchorPoint: "Anchor-7" 707 -861 basechar 0
AnchorPoint: "Anchor-10" 695 1293 basechar 0
LayerCount: 2
Fore
SplineSet
699.5 -243.94921875 m 1
 577.180664062 -121.629882812 l 1
 699.5 0.689453125 l 1
 821.819335938 -121.629882812 l 1
 699.5 -243.94921875 l 1
827.98046875 -52.689453125 m 1
 705.661132812 69.6298828125 l 1
 827.98046875 191.94921875 l 1
 950.298828125 69.6298828125 l 1
 827.98046875 -52.689453125 l 1
571.01953125 -52.689453125 m 1
 448.701171875 69.6298828125 l 1
 571.01953125 191.94921875 l 1
 693.338867188 69.6298828125 l 1
 571.01953125 -52.689453125 l 1
EndSplineSet
Refer: 173 65186 N 1 0 0 1 0 0 2
EndChar

StartChar: uniFB8F
Encoding: 64399 64399 107
GlifName: uniF_B_8F_
Width: 2111
GlyphClass: 2
Flags: HW
AnchorPoint: "Anchor-10" 1229 1573 basechar 0
AnchorPoint: "Anchor-7" 817 -210 basechar 0
LayerCount: 2
Fore
SplineSet
1330 1115 m 1
 1476 978 1619 846 1769 705 c 0
 1918 565 2015 495 2101 495 c 2
 2116 495 l 2
 2133 495 2141 434 2141 313 c 2
 2141 171 l 2
 2141 57 2133 0 2116 0 c 2
 2094 0 l 2
 1903 0 1744 105 1576 315 c 1
 1461 105 1208 0 814 0 c 0
 388 0 78 136 78 539 c 0
 78 694 116 846 191 994 c 1
 346 938 l 1
 326 866 316 805 316 756 c 0
 316 550 542 491 826 491 c 0
 1135 491 1349 526 1349 599 c 0
 1349 674 1041 914 923 1005 c 1
 996 1348 l 1
 1770 1597 l 1
 1805 1609 1814.57617188 1603.32324219 1810 1569 c 2
 1768 1254 l 1
 1330 1115 l 1
EndSplineSet
EndChar

StartChar: uniFB93
Encoding: 64403 64403 111
GlifName: uniF_B_93
Width: 2046
GlyphClass: 2
Flags: HW
AnchorPoint: "Anchor-7" 817 -210 basechar 0
AnchorPoint: "Anchor-10" 1283 1703 basechar 0
LayerCount: 2
Fore
SplineSet
1329 1006 m 1
 1401 940 1510 845 1585 783 c 0
 1773 628 1970 495 2044 495 c 2
 2051 495 l 2
 2068 495 2076 434 2076 313 c 2
 2076 181 l 2
 2076 60 2068 0 2051 0 c 2
 2039 0 l 2
 1842 0 1670 94 1521 280 c 1
 1405 94 1170 0 814 0 c 0
 388 0 78 136 78 539 c 0
 78 694 116 846 191 994 c 1
 346 938 l 1
 326 866 316 805 316 756 c 0
 316 555 547 491 846 491 c 0
 1163 491 1330 520 1330 580 c 0
 1330 636 1034 842 922 900 c 1
 995 1239 l 1
 1769 1488 l 1
 1804 1500 1813.57617188 1494.32324219 1809 1460 c 2
 1767 1145 l 1
 1329 1006 l 1
EndSplineSet
Refer: 273 -1 N 1.1342 0 0 1.1342 1015 -601 2
EndChar

StartChar: uniFB94
Encoding: 64404 64404 112
GlifName: uniF_B_94
Width: 950
GlyphClass: 2
Flags: HW
AnchorPoint: "Anchor-10" 388 1734 basechar 0
AnchorPoint: "Anchor-7" 334 -224 basechar 0
LayerCount: 2
Fore
SplineSet
417 1004 m 1
 643 831 758 661 758 492 c 0
 758 162 550 0 110 0 c 2
 -6 0 l 2
 -42 0 -60 57 -60 171 c 2
 -60 303 l 2
 -60 431 -42 495 -6 495 c 2
 114 495 l 2
 286 495 422 513 422 560 c 0
 422 614 230 755 12 896 c 1
 83 1237 l 1
 857 1486 l 1
 892 1498 901.576171875 1492.32324219 897 1458 c 2
 855 1143 l 1
 417 1004 l 1
EndSplineSet
Refer: 273 -1 N 1.1342 0 0 1.1342 105 -601 2
EndChar

StartChar: uniFB95
Encoding: 64405 64405 113
GlifName: uniF_B_95
Width: 1135
GlyphClass: 2
Flags: HW
AnchorPoint: "Anchor-10" 391 1730 basechar 0
AnchorPoint: "Anchor-7" 367 -197 basechar 0
LayerCount: 2
Fore
SplineSet
417 1004 m 1
 544 897 632 824 679 786 c 0
 907 592 1059 495 1133 495 c 2
 1140 495 l 2
 1157 495 1165 431 1165 303 c 2
 1165 171 l 2
 1165 57 1157 0 1140 0 c 2
 1128 0 l 2
 988 0 842 88 689 265 c 1
 599 88 406 0 111 0 c 6
 -6 0 l 2
 -43 0 -61 60 -61 181 c 2
 -61 313 l 2
 -61 434 -43 495 -6 495 c 2
 114 495 l 6
 294 495 422 518 422 559 c 0
 422 606 269 729 12 898 c 1
 83 1237 l 1
 857 1486 l 1
 892 1498 901.576171875 1492.32324219 897 1458 c 2
 855 1143 l 1
 417 1004 l 1
EndSplineSet
Refer: 273 -1 N 1.1342 0 0 1.1342 105 -601 2
EndChar

StartChar: uniFB9F
Encoding: 64415 64415 115
GlifName: uniF_B_9F_
Width: 1465
GlyphClass: 2
Flags: HW
AnchorPoint: "Anchor-10" 591 1036 basechar 0
AnchorPoint: "Anchor-7" 467 -979 basechar 0
LayerCount: 2
Fore
SplineSet
1337 34 m 1
 1307 -348 1112 -566 709 -567 c 0
 311 -567 77 -354 77 31 c 0
 77 203 120 376 204 549 c 1
 381 494 l 1
 347 379 329 283 329 208 c 0
 329 -18 483 -96 715 -96 c 0
 1008 -96 1109 34 1109 95 c 0
 1109 134 1019 274 932 402 c 1
 1146 700 l 2
 1159 717 1175 715 1192 694 c 0
 1213 668 1235 640 1259 608 c 0
 1317 531 1370 495 1411 495 c 2
 1470 495 l 6
 1487 495 1495 434 1495 313 c 6
 1495 181 l 6
 1495 60 1487 0 1470 0 c 6
 1422 0 l 2
 1397 0 1369 11 1337 34 c 1
EndSplineSet
EndChar

StartChar: uniFBE8
Encoding: 64488 64488 118
GlifName: uniF_B_E_8
Width: 668
GlyphClass: 2
Flags: HW
AnchorPoint: "Anchor-10" 323 1303 basechar 0
AnchorPoint: "Anchor-7" 371 -229 basechar 0
LayerCount: 2
Fore
SplineSet
607 594 m 0
 607 274 464 0 137 0 c 2
 -5 0 l 2
 -42 0 -60 57 -60 171 c 2
 -60 303 l 2
 -60 431 -42 495 -5 495 c 2
 167 495 l 2
 247 495 339 515 339 575 c 0
 339 630 302 710 253 811 c 1
 432 1033 l 2
 449 1054 466 1056 481 1032 c 0
 565 902 607 757 607 594 c 0
EndSplineSet
EndChar

StartChar: uniFBE9
Encoding: 64489 64489 119
GlifName: uniF_B_E_9
Width: 728
GlyphClass: 2
Flags: HW
AnchorPoint: "Anchor-10" 376 1190 basechar 0
AnchorPoint: "Anchor-7" 350 -188 basechar 0
LayerCount: 2
Fore
SplineSet
-5 495 m 2
 148 495 l 2
 278 495 332 548 347 655 c 2
 367 793 l 1
 528 793 l 1
 549 658 l 2
 566 549 609 495 715 495 c 2
 733 495 l 2
 750 495 758 431 758 303 c 2
 758 171 l 2
 758 57 750 0 733 0 c 2
 712 0 l 2
 579 0 507 57 441 172 c 5
 361 57 264 0 125 0 c 2
 -5 0 l 2
 -42 0 -60 57 -60 171 c 2
 -60 303 l 2
 -60 431 -42 495 -5 495 c 2
EndSplineSet
EndChar

StartChar: uniFE73
Encoding: 65139 65139 127
GlifName: uniF_E_73
Width: 785
GlyphClass: 2
Flags: HW
AnchorPoint: "Anchor-10" 369 1242 basechar 0
AnchorPoint: "Anchor-7" 377 -188 basechar 0
LayerCount: 2
Fore
SplineSet
309 464 m 2
 309 275 439 180 699 180 c 2
 790 180 l 1
 790 3 l 1
 686 3 l 2
 296 3 101 150 101 444 c 2
 101 481 l 1
 309 481 l 1
 309 464 l 2
EndSplineSet
EndChar

StartChar: uniFE8E
Encoding: 65166 65166 153
GlifName: uniF_E_8E_
Width: 562
GlyphClass: 2
Flags: HW
AnchorPoint: "Anchor-10" 218 1633 basechar 0
AnchorPoint: "Anchor-7" 313 -198 basechar 0
LayerCount: 2
Fore
SplineSet
423 982 m 4
 423 593 436 495 559 495 c 6
 567 495 l 6
 584 495 592 431 592 303 c 6
 592 171 l 6
 592 57 584 0 567 0 c 6
 493 0 l 6
 164 0 105 235 103 590 c 4
 100 916 78 1176 37 1371 c 5
 347 1571 l 6
 381 1592 395 1571 400 1516 c 4
 412 1392 423 1175 423 982 c 4
EndSplineSet
EndChar

StartChar: uniFEA2
Encoding: 65186 65186 173
GlifName: uniF_E_A_2
Width: 1387
GlyphClass: 2
Flags: HW
AnchorPoint: "Anchor-7" 707 -861 basechar 0
AnchorPoint: "Anchor-10" 695 1293 basechar 0
LayerCount: 2
Fore
SplineSet
868 426 m 1
 595 323 350 180 350 -64 c 0
 350 -225 499 -302 791 -302 c 0
 956 -302 1098 -291 1217 -268 c 0
 1296 -255 1255 -334 1225 -387 c 2
 1107 -593 l 2
 1072 -654 1026 -686 967 -691 c 0
 912 -695 862 -697 817 -697 c 0
 354 -696 122 -533 122 -90 c 0
 122 282 333 540 664 649 c 1
 549 675 469 689 423 689 c 0
 359 689 292 648 223 565 c 1
 81 641 l 1
 136 840 232 1057 433 1057 c 0
 488 1057 684 1007 1018 908 c 0
 1085 888 1161 878 1248 878 c 0
 1279 878 1296 877 1291 858 c 2
 1209 546 l 1
 1156 538 1103 529 1052 513 c 1
 1139 496 1255 495 1359 495 c 6
 1392 495 l 6
 1409 495 1417 431 1417 303 c 6
 1417 171 l 6
 1417 57 1409 0 1392 0 c 6
 1368 0 l 6
 1081 0 901 142 868 426 c 1
EndSplineSet
EndChar

StartChar: uniFEA3
Encoding: 65187 65187 174
GlifName: uniF_E_A_3
Width: 1345
GlyphClass: 2
Flags: HW
AnchorPoint: "Anchor-10" 560 1380 basechar 0
AnchorPoint: "Anchor-7" 583 -186 basechar 0
LayerCount: 2
Fore
SplineSet
198 631 m 1
 57 704 l 1
 121 913 219 1137 460 1137 c 0
 524 1137 629 1101 775 1029 c 0
 985 925 1097 890 1260 890 c 0
 1306 890 1313 887 1307 866 c 2
 1198 505 l 1
 1138 488 939 373 600 162 c 0
 427 54 235 0 26 0 c 2
 -5 0 l 2
 -42 0 -60 57 -60 171 c 2
 -60 303 l 2
 -60 431 -42 495 -5 495 c 2
 46 495 l 2
 394 495 588 540 764 639 c 1
 738 650 664 679 591 705 c 0
 523 729 457 749 430 749 c 0
 328 749 257 705 198 631 c 1
EndSplineSet
EndChar

StartChar: uniFEA4
Encoding: 65188 65188 175
GlifName: uniF_E_A_4
Width: 1346
GlyphClass: 2
Flags: HW
AnchorPoint: "Anchor-7" 583 -186 basechar 0
AnchorPoint: "Anchor-10" 560 1380 basechar 0
LayerCount: 2
Fore
SplineSet
198 631 m 1
 57 704 l 1
 121 913 219 1137 460 1137 c 0
 524 1137 629 1101 775 1029 c 0
 985 925 1097 890 1260 890 c 0
 1306 890 1313 887 1307 866 c 2
 1218 565 l 1
 1148 564 1091 544 1047 506 c 1
 1049 497 1065 493 1095 493 c 2
 1351 495 l 6
 1368 495 1376 431 1376 303 c 6
 1376 171 l 6
 1376 57 1368 0 1351 0 c 6
 1297 0 l 2
 1030 0 874 121 827 363 c 1
 614 174 312 0 26 0 c 2
 -5 0 l 2
 -42 0 -60 57 -60 171 c 2
 -60 303 l 2
 -60 431 -42 495 -5 495 c 2
 46 495 l 2
 394 495 588 540 764 639 c 1
 738 650 664 679 591 705 c 0
 523 729 457 749 430 749 c 0
 328 749 257 705 198 631 c 1
EndSplineSet
EndChar

StartChar: uniFEAA
Encoding: 65194 65194 181
GlifName: uniF_E_A_A_
Width: 1129
GlyphClass: 2
Flags: HW
AnchorPoint: "Anchor-10" 640 1500 basechar 0
AnchorPoint: "Anchor-7" 483 -232 basechar 0
LayerCount: 2
Fore
SplineSet
815 204 m 1
 717 68 586 0 423 -0 c 0
 184 0 64 126 64 376 c 0
 64 456 79 542 109 633 c 1
 262 616 l 1
 262 568 l 2
 262 524 324 497 438 497 c 0
 523 497 671 522 671 579 c 0
 671 584 670 590 666 603 c 2
 526 1022 l 1
 705 1241 l 2
 728 1270 749 1275 762 1238 c 2
 949 674 l 2
 988 555 1046 495 1122 495 c 2
 1134 495 l 2
 1151 495 1159 431 1159 303 c 2
 1159 171 l 2
 1159 57 1151 0 1134 0 c 2
 1119 0 l 2
 984 0 883 68 815 204 c 1
EndSplineSet
PairPos2: "'kern' Horizontal Kerning lookup 0 subtable 4" uni06AF dx=-120 dy=0 dh=-120 dv=0 dx=0 dy=0 dh=0 dv=0
PairPos2: "'kern' Horizontal Kerning lookup 0 subtable 4" uniFB94 dx=-120 dy=0 dh=-120 dv=0 dx=0 dy=0 dh=0 dv=0
PairPos2: "'kern' Horizontal Kerning lookup 0 subtable 4" uni06A9 dx=-120 dy=0 dh=-120 dv=0 dx=0 dy=0 dh=0 dv=0
PairPos2: "'kern' Horizontal Kerning lookup 0 subtable 4" uniFB90 dx=-120 dy=0 dh=-120 dv=0 dx=0 dy=0 dh=0 dv=0
EndChar

StartChar: uniFEAE
Encoding: 65198 65198 185
GlifName: uniF_E_A_E_
Width: 857
GlyphClass: 2
Flags: HW
AnchorPoint: "Anchor-7" 371 -696 basechar 0
AnchorPoint: "Anchor-10" 476 1067 basechar 0
LayerCount: 2
Fore
SplineSet
714 31 m 1
 691 -185 615 -417 533 -483 c 0
 502 -508 446 -520 365 -520 c 2
 121 -520 l 2
 -108 -520 -88 -449 47 -362 c 0
 323 -184 497 62 497 124 c 0
 497 160 458 232 290 434 c 1
 508 758 l 1
 545 709 578 667 614 622 c 0
 685 533 766 495 854 495 c 2
 862 495 l 2
 879 495 887 431 887 303 c 2
 887 171 l 2
 887 57 879 0 862 0 c 2
 850 0 l 2
 788 0 743 10 714 31 c 1
EndSplineSet
PairPos2: "'kern' Horizontal Kerning lookup 0 subtable 3" uni0621 dx=-128 dy=0 dh=-128 dv=0 dx=0 dy=0 dh=0 dv=0
PairPos2: "'kern' Horizontal Kerning lookup 0 subtable 3" uni06C0 dx=-128 dy=0 dh=-128 dv=0 dx=0 dy=0 dh=0 dv=0
PairPos2: "'kern' Horizontal Kerning lookup 0 subtable 2" uni0648 dx=-43 dy=0 dh=-43 dv=0 dx=0 dy=0 dh=0 dv=0
PairPos2: "'kern' Horizontal Kerning lookup 0 subtable 0" uni067E dx=-128 dy=0 dh=-128 dv=0 dx=0 dy=0 dh=0 dv=0
PairPos2: "'kern' Horizontal Kerning lookup 0 subtable 0" uniFB56 dx=-128 dy=0 dh=-128 dv=0 dx=0 dy=0 dh=0 dv=0
PairPos2: "'kern' Horizontal Kerning lookup 0 subtable 0" uni06AF dx=-235 dy=0 dh=-235 dv=0 dx=0 dy=0 dh=0 dv=0
PairPos2: "'kern' Horizontal Kerning lookup 0 subtable 0" uniFB94 dx=-235 dy=0 dh=-235 dv=0 dx=0 dy=0 dh=0 dv=0
PairPos2: "'kern' Horizontal Kerning lookup 0 subtable 0" uni0622 dx=-150 dy=0 dh=-150 dv=0 dx=0 dy=0 dh=0 dv=0
PairPos2: "'kern' Horizontal Kerning lookup 0 subtable 0" uni0627 dx=-150 dy=0 dh=-150 dv=0 dx=0 dy=0 dh=0 dv=0
PairPos2: "'kern' Horizontal Kerning lookup 0 subtable 0" uni0628 dx=-128 dy=0 dh=-128 dv=0 dx=0 dy=0 dh=0 dv=0
PairPos2: "'kern' Horizontal Kerning lookup 0 subtable 0" uni0629 dx=-128 dy=0 dh=-128 dv=0 dx=0 dy=0 dh=0 dv=0
PairPos2: "'kern' Horizontal Kerning lookup 0 subtable 0" uni062A dx=-128 dy=0 dh=-128 dv=0 dx=0 dy=0 dh=0 dv=0
PairPos2: "'kern' Horizontal Kerning lookup 0 subtable 0" uniFE97 dx=-128 dy=0 dh=-128 dv=0 dx=0 dy=0 dh=0 dv=0
PairPos2: "'kern' Horizontal Kerning lookup 0 subtable 0" uni062B dx=-128 dy=0 dh=-128 dv=0 dx=0 dy=0 dh=0 dv=0
PairPos2: "'kern' Horizontal Kerning lookup 0 subtable 0" uniFE9B dx=-128 dy=0 dh=-128 dv=0 dx=0 dy=0 dh=0 dv=0
PairPos2: "'kern' Horizontal Kerning lookup 0 subtable 0" uniFE9F dx=-128 dy=0 dh=-128 dv=0 dx=0 dy=0 dh=0 dv=0
PairPos2: "'kern' Horizontal Kerning lookup 0 subtable 0" uniFEA3 dx=-128 dy=0 dh=-128 dv=0 dx=0 dy=0 dh=0 dv=0
PairPos2: "'kern' Horizontal Kerning lookup 0 subtable 0" uniFEA7 dx=-128 dy=0 dh=-128 dv=0 dx=0 dy=0 dh=0 dv=0
PairPos2: "'kern' Horizontal Kerning lookup 0 subtable 0" uni062F dx=-128 dy=0 dh=-128 dv=0 dx=0 dy=0 dh=0 dv=0
PairPos2: "'kern' Horizontal Kerning lookup 0 subtable 0" uni0630 dx=-128 dy=0 dh=-128 dv=0 dx=0 dy=0 dh=0 dv=0
PairPos2: "'kern' Horizontal Kerning lookup 0 subtable 0" uni0633 dx=-128 dy=0 dh=-128 dv=0 dx=0 dy=0 dh=0 dv=0
PairPos2: "'kern' Horizontal Kerning lookup 0 subtable 0" uniFEB3 dx=-128 dy=0 dh=-128 dv=0 dx=0 dy=0 dh=0 dv=0
PairPos2: "'kern' Horizontal Kerning lookup 0 subtable 0" uni0634 dx=-128 dy=0 dh=-128 dv=0 dx=0 dy=0 dh=0 dv=0
PairPos2: "'kern' Horizontal Kerning lookup 0 subtable 0" uniFEB7 dx=-128 dy=0 dh=-128 dv=0 dx=0 dy=0 dh=0 dv=0
PairPos2: "'kern' Horizontal Kerning lookup 0 subtable 0" uni0635 dx=-128 dy=0 dh=-128 dv=0 dx=0 dy=0 dh=0 dv=0
PairPos2: "'kern' Horizontal Kerning lookup 0 subtable 0" uniFEBB dx=-128 dy=0 dh=-128 dv=0 dx=0 dy=0 dh=0 dv=0
PairPos2: "'kern' Horizontal Kerning lookup 0 subtable 0" uni0636 dx=-128 dy=0 dh=-128 dv=0 dx=0 dy=0 dh=0 dv=0
PairPos2: "'kern' Horizontal Kerning lookup 0 subtable 0" uniFEBF dx=-128 dy=0 dh=-128 dv=0 dx=0 dy=0 dh=0 dv=0
PairPos2: "'kern' Horizontal Kerning lookup 0 subtable 0" uni0637 dx=-128 dy=0 dh=-128 dv=0 dx=0 dy=0 dh=0 dv=0
PairPos2: "'kern' Horizontal Kerning lookup 0 subtable 0" uniFEC3 dx=-128 dy=0 dh=-128 dv=0 dx=0 dy=0 dh=0 dv=0
PairPos2: "'kern' Horizontal Kerning lookup 0 subtable 0" uni0638 dx=-128 dy=0 dh=-128 dv=0 dx=0 dy=0 dh=0 dv=0
PairPos2: "'kern' Horizontal Kerning lookup 0 subtable 0" uniFEC7 dx=-128 dy=0 dh=-128 dv=0 dx=0 dy=0 dh=0 dv=0
PairPos2: "'kern' Horizontal Kerning lookup 0 subtable 0" uniFECB dx=-128 dy=0 dh=-128 dv=0 dx=0 dy=0 dh=0 dv=0
PairPos2: "'kern' Horizontal Kerning lookup 0 subtable 0" uniFECF dx=-128 dy=0 dh=-128 dv=0 dx=0 dy=0 dh=0 dv=0
PairPos2: "'kern' Horizontal Kerning lookup 0 subtable 0" uni0641 dx=-128 dy=0 dh=-128 dv=0 dx=0 dy=0 dh=0 dv=0
PairPos2: "'kern' Horizontal Kerning lookup 0 subtable 0" uniFED3 dx=-128 dy=0 dh=-128 dv=0 dx=0 dy=0 dh=0 dv=0
PairPos2: "'kern' Horizontal Kerning lookup 0 subtable 0" uniFED7 dx=-128 dy=0 dh=-128 dv=0 dx=0 dy=0 dh=0 dv=0
PairPos2: "'kern' Horizontal Kerning lookup 0 subtable 0" uniFEDB dx=-213 dy=0 dh=-213 dv=0 dx=0 dy=0 dh=0 dv=0
PairPos2: "'kern' Horizontal Kerning lookup 0 subtable 0" uni0645 dx=-128 dy=0 dh=-128 dv=0 dx=0 dy=0 dh=0 dv=0
PairPos2: "'kern' Horizontal Kerning lookup 0 subtable 0" uniFEE3 dx=-128 dy=0 dh=-128 dv=0 dx=0 dy=0 dh=0 dv=0
PairPos2: "'kern' Horizontal Kerning lookup 0 subtable 0" uniFEE7 dx=-128 dy=0 dh=-128 dv=0 dx=0 dy=0 dh=0 dv=0
PairPos2: "'kern' Horizontal Kerning lookup 0 subtable 0" uni0647 dx=-128 dy=0 dh=-128 dv=0 dx=0 dy=0 dh=0 dv=0
PairPos2: "'kern' Horizontal Kerning lookup 0 subtable 0" uni0649 dx=-43 dy=0 dh=-43 dv=0 dx=0 dy=0 dh=0 dv=0
PairPos2: "'kern' Horizontal Kerning lookup 0 subtable 0" uni06A9 dx=-213 dy=0 dh=-213 dv=0 dx=0 dy=0 dh=0 dv=0
PairPos2: "'kern' Horizontal Kerning lookup 0 subtable 0" uniFB90 dx=-213 dy=0 dh=-213 dv=0 dx=0 dy=0 dh=0 dv=0
PairPos2: "'kern' Horizontal Kerning lookup 0 subtable 0" uniFEDF dx=-128 dy=0 dh=-128 dv=0 dx=0 dy=0 dh=0 dv=0
PairPos2: "'kern' Horizontal Kerning lookup 0 subtable 0" uniFEEB dx=-128 dy=0 dh=-128 dv=0 dx=0 dy=0 dh=0 dv=0
PairPos2: "'kern' Horizontal Kerning lookup 0 subtable 0" uni06CC dx=-43 dy=0 dh=-43 dv=0 dx=0 dy=0 dh=0 dv=0
PairPos2: "'kern' Horizontal Kerning lookup 0 subtable 0" uniFB7C dx=-128 dy=0 dh=-128 dv=0 dx=0 dy=0 dh=0 dv=0
PairPos2: "'kern' Horizontal Kerning lookup 0 subtable 0" uni0698 dx=-43 dy=0 dh=-43 dv=0 dx=0 dy=0 dh=0 dv=0
PairPos2: "'kern' Horizontal Kerning lookup 0 subtable 0" uniFB8A dx=-43 dy=0 dh=-43 dv=0 dx=0 dy=0 dh=0 dv=0
PairPos2: "'kern' Horizontal Kerning lookup 0 subtable 0" uni0631 dx=-43 dy=0 dh=-43 dv=0 dx=0 dy=0 dh=0 dv=0
PairPos2: "'kern' Horizontal Kerning lookup 0 subtable 0" uni0632 dx=-43 dy=0 dh=-43 dv=0 dx=0 dy=0 dh=0 dv=0
PairPos2: "'kern' Horizontal Kerning lookup 0 subtable 0" uni0642 dx=-43 dy=0 dh=-43 dv=0 dx=0 dy=0 dh=0 dv=0
PairPos2: "'kern' Horizontal Kerning lookup 0 subtable 0" uni0644 dx=-43 dy=0 dh=-43 dv=0 dx=0 dy=0 dh=0 dv=0
PairPos2: "'kern' Horizontal Kerning lookup 0 subtable 0" uniFB58 dx=20 dy=0 dh=20 dv=0 dx=0 dy=0 dh=0 dv=0
EndChar

StartChar: uniFEB2
Encoding: 65202 65202 189
GlifName: uniF_E_B_2
Width: 2464
GlyphClass: 2
Flags: HW
AnchorPoint: "Anchor-7" 718 -726.6 basechar 0
AnchorPoint: "Anchor-10" 1685 1137.8 basechar 0
LayerCount: 2
Fore
SplineSet
1456 0 m 4
 1422 0 1383 11 1339 34 c 1
 1310 -342 1114 -566 719 -567 c 0
 313 -567 77 -359 77 31 c 0
 77 203 120 376 204 549 c 1
 381 494 l 1
 347 379 329 283 329 208 c 0
 329 -22 484 -96 725 -96 c 0
 1019 -96 1110 46 1110 99 c 0
 1110 133 1017 277 932 402 c 1
 1145 698 l 2
 1159 717 1173 717 1186 698 c 0
 1214 658 1227 640 1249 610 c 0
 1303 535 1372 497 1456 497 c 0
 1537 497 1582 540 1595 627 c 2
 1615 759 l 1
 1763 759 l 1
 1788 633 l 2
 1806 542 1854 496 1930 496 c 0
 2010 496 2056 549 2070 657 c 2
 2088 793 l 1
 2250 793 l 1
 2267 659 l 2
 2281 549 2339 495 2440 495 c 2
 2469 495 l 2
 2486 495 2495 431 2495 303 c 2
 2495 171 l 2
 2495 57 2486 0 2469 0 c 2
 2439 0 l 2
 2322 0 2231 55 2166 164 c 1
 2097 55 2018 0 1929 -0 c 0
 1835 0 1753 57 1682 171 c 1
 1611 57 1536 0 1456 0 c 4
EndSplineSet
EndChar

StartChar: uniFEB3
Encoding: 65203 65203 190
GlifName: uniF_E_B_3
Width: 1545
GlyphClass: 2
Flags: HW
AnchorPoint: "Anchor-7" 807 -217 basechar 0
AnchorPoint: "Anchor-10" 842 1088 basechar 0
LayerCount: 2
Fore
SplineSet
1090 495 m 0
 1163 495 1209 518 1209 580 c 0
 1209 619 1187 669 1120 791 c 1
 1299 1013 l 2
 1317 1035 1334 1035 1349 1012 c 0
 1433 882 1474 743 1474 594 c 0
 1474 331 1341 0 1071 -0 c 0
 989 0 915 57 844 171 c 1
 773 57 698 0 619 0 c 0
 509 0 425 55 365 165 c 1
 275 55 170 0 50 0 c 2
 -5 0 l 2
 -42 0 -60 57 -60 171 c 2
 -60 303 l 2
 -60 431 -42 495 -5 495 c 2
 77 495 l 2
 194 495 259 540 272 628 c 2
 291 761 l 1
 440 761 l 1
 463 631 l 2
 478 542 531 497 619 497 c 0
 699 497 744 541 757 627 c 2
 776 759 l 1
 925 759 l 1
 950 633 l 2
 968 541 1015 495 1090 495 c 0
EndSplineSet
EndChar

StartChar: uniFEB4
Encoding: 65204 65204 191
GlifName: uniF_E_B_4
Width: 1626
GlyphClass: 2
Flags: HW
AnchorPoint: "Anchor-7" 807 -217 basechar 0
AnchorPoint: "Anchor-10" 835 1089 basechar 0
LayerCount: 2
Fore
SplineSet
1091 -0 m 0
 997 0 915 57 844 171 c 1
 773 57 698 0 619 0 c 0
 509 0 425 55 365 165 c 1
 275 55 170 0 50 0 c 2
 -5 0 l 2
 -42 0 -60 57 -60 171 c 2
 -60 303 l 2
 -60 431 -42 495 -5 495 c 2
 77 495 l 2
 194 495 259 540 272 628 c 2
 291 761 l 1
 440 761 l 1
 463 631 l 2
 478 542 531 497 619 497 c 0
 699 497 744 541 757 627 c 2
 776 759 l 1
 925 759 l 1
 950 633 l 2
 968 542 1015 496 1091 496 c 0
 1171 496 1218 549 1232 657 c 2
 1250 793 l 1
 1412 793 l 1
 1429 659 l 2
 1443 549 1501 495 1602 495 c 2
 1631 495 l 2
 1648 495 1656 431 1656 303 c 2
 1656 171 l 2
 1656 57 1648 0 1631 0 c 2
 1601 0 l 2
 1484 0 1393 55 1328 164 c 1
 1259 55 1180 0 1091 -0 c 0
EndSplineSet
EndChar

StartChar: uniFEBA
Encoding: 65210 65210 197
GlifName: uniF_E_B_A_
Width: 2646
GlyphClass: 2
Flags: HW
AnchorPoint: "Anchor-7" 718 -726.6 basechar 0
AnchorPoint: "Anchor-10" 2095 1309 basechar 0
LayerCount: 2
Fore
SplineSet
1337 34 m 1
 1307 -354 1111 -566 699 -567 c 0
 309 -567 77 -349 77 31 c 0
 77 203 120 376 204 549 c 1
 381 494 l 1
 347 379 329 283 329 208 c 0
 329 -15 481 -96 705 -96 c 0
 1028 -96 1110 48 1110 99 c 0
 1110 137 1017 277 932 402 c 1
 1142 694 l 2
 1157 715 1173 714 1191 691 c 2
 1251 613 l 2
 1310 536 1374 497 1441 497 c 1
 1643 755 1904 1049 2212 1049 c 0
 2414 1049 2545 914 2545 699 c 0
 2545 615 2537 548 2521 495 c 1
 2651 495 l 2
 2668 495 2676 431 2676 303 c 2
 2676 171 l 2
 2676 57 2668 -2.08189955855e-15 2651 0 c 2
 2610 0 l 2
 2503 0 2365 17 2254 132 c 1
 2097 37 1957 0 1790 0 c 2
 1587 0 l 2
 1491 0 1407 10 1337 34 c 1
1671 494 m 1
 1918 494 l 2
 2116 494 2297 509 2297 572 c 0
 2297 644 2221 689 2092 689 c 0
 1951 689 1792 597 1671 494 c 1
EndSplineSet
EndChar

StartChar: uniFEBB
Encoding: 65211 65211 198
GlifName: uniF_E_B_B_
Width: 1703
GlyphClass: 2
Flags: HW
AnchorPoint: "Anchor-7" 879 -239 basechar 0
AnchorPoint: "Anchor-10" 1189 1310 basechar 0
LayerCount: 2
Fore
SplineSet
1299 1049 m 0
 1499 1049 1632 914 1632 699 c 0
 1632 256 1284 0 877 -0 c 2
 675 -0 l 2
 547 0 426 46 314 168 c 1
 212 46 117 0 28 0 c 2
 -5 0 l 2
 -42 0 -60 57 -60 171 c 2
 -60 303 l 2
 -60 431 -42 495 -5 495 c 2
 29 495 l 2
 140 495 205 548 220 655 c 2
 240 793 l 1
 401 793 l 1
 422 658 l 2
 438 555 473 501 528 497 c 1
 725 757 1004 1049 1299 1049 c 0
758 494 m 1
 998 494 l 2
 1193 494 1384 508 1384 570 c 0
 1384 646 1303 689 1180 689 c 0
 1039 689 879 597 758 494 c 1
EndSplineSet
EndChar

StartChar: uniFEBC
Encoding: 65212 65212 199
GlifName: uniF_E_B_C_
Width: 1720
GlyphClass: 2
Flags: HW
AnchorPoint: "Anchor-10" 1189 1310 basechar 0
AnchorPoint: "Anchor-7" 879 -239 basechar 0
LayerCount: 2
Fore
SplineSet
758 494 m 1
 1000 494 l 2
 1195 494 1384 508 1384 570 c 0
 1384 645 1303 689 1180 689 c 0
 1042 689 879 597 758 494 c 1
1299 1049 m 0
 1501 1049 1632 914 1632 699 c 0
 1632 617 1624 550 1608 495 c 1
 1725 495 l 2
 1742 495 1750 431 1750 303 c 2
 1750 171 l 2
 1750 57 1742 0 1725 0 c 2
 1697 0 l 6
 1590 0 1452 17 1341 132 c 1
 1184 37 1044 -2.04516015458e-14 877 -0 c 2
 675 -0 l 2
 547 0 426 46 314 168 c 1
 210 46 115 0 28 0 c 2
 -5 0 l 2
 -42 0 -60 57 -60 171 c 2
 -60 303 l 2
 -60 431 -42 495 -5 495 c 2
 29 495 l 2
 140 495 204 548 220 655 c 2
 240 793 l 1
 401 793 l 1
 422 658 l 2
 438 555 473 501 528 497 c 1
 727 759 999 1049 1299 1049 c 0
EndSplineSet
EndChar

StartChar: uniFEC2
Encoding: 65218 65218 205
GlifName: uniF_E_C_2
Width: 1599
GlyphClass: 2
Flags: HW
AnchorPoint: "Anchor-10" 508 1633 basechar 0
AnchorPoint: "Anchor-7" 732 -191 basechar 0
LayerCount: 2
Fore
SplineSet
299 0 m 5
 56 361 l 2
 -46 512 51 495 94 495 c 2
 409 495 l 1
 409 496 409 499 409 500 c 1
 397 867 373 1157 338 1372 c 1
 651 1575 l 2
 681 1594 704 1591 704 1539 c 2
 704 811 l 1
 885 969 1047 1049 1191 1049 c 0
 1394 1049 1524 912 1524 696 c 0
 1524 625 1513 557 1492 495 c 1
 1604 495 l 2
 1621 495 1629 431 1629 303 c 2
 1629 171 l 2
 1629 57 1621 0 1604 0 c 2
 1578 0 l 2
 1481 0 1344 16 1233 131 c 1
 1076 36 936 0 769 0 c 2
 299 0 l 5
1276 571 m 0
 1276 600 1261 689 1071 689 c 0
 926 689 771 596 650 494 c 1
 897 494 l 2
 1214 494 1276 533 1276 571 c 0
EndSplineSet
EndChar

StartChar: uniFEC3
Encoding: 65219 65219 206
GlifName: uniF_E_C_3
Width: 1322
GlyphClass: 2
Flags: HW
AnchorPoint: "Anchor-10" 238 1633 basechar 0
AnchorPoint: "Anchor-7" 493 -199 basechar 0
LayerCount: 2
Fore
SplineSet
1003 571 m 0
 1003 600 988 689 798 689 c 0
 653 689 498 596 377 494 c 1
 624 494 l 2
 941 494 1003 533 1003 571 c 0
-5 0 m 2
 -42 0 -60 57 -60 171 c 2
 -60 303 l 2
 -60 431 -42 495 -5 495 c 10
 132 495 l 1
 133 496 134 497 135 498 c 1
 124 865 100 1157 65 1372 c 1
 378 1575 l 2
 409 1596 431 1590 431 1539 c 2
 431 811 l 1
 612 969 774 1049 918 1049 c 0
 1121 1049 1251 912 1251 696 c 0
 1251 257 898 0 496 0 c 2
 -5 0 l 2
EndSplineSet
EndChar

StartChar: uniFEC4
Encoding: 65220 65220 207
GlifName: uniF_E_C_4
Width: 1328
GlyphClass: 2
Flags: HW
AnchorPoint: "Anchor-10" 238 1633 basechar 0
AnchorPoint: "Anchor-7" 507 -195 basechar 0
LayerCount: 2
Fore
SplineSet
-5 0 m 6
 -42 0 -60 57 -60 171 c 2
 -60 303 l 2
 -60 431 -42 495 -5 495 c 2
 132 495 l 2
 133 496 134 497 135 498 c 0
 124 865 100 1157 65 1372 c 1
 378 1575 l 2
 408 1594 431 1591 431 1539 c 2
 431 811 l 1
 612 969 774 1049 918 1049 c 0
 1121 1049 1251 912 1251 696 c 0
 1251 624 1239 557 1219 495 c 1
 1333 495 l 2
 1350 495 1358 431 1358 303 c 2
 1358 171 l 2
 1358 57 1350 -2.08189955855e-15 1333 0 c 2
 1304 0 l 2
 1207 0 1070 17 959 132 c 1
 802 37 662 0 495 0 c 2
 -5 0 l 6
1003 571 m 0
 1003 600 988 689 798 689 c 0
 653 689 498 596 377 494 c 1
 624 494 l 2
 941 494 1003 533 1003 571 c 0
EndSplineSet
EndChar

StartChar: uniFECA
Encoding: 65226 65226 213
GlifName: uniF_E_C_A_
Width: 1324
GlyphClass: 2
Flags: HW
AnchorPoint: "Anchor-7" 707 -861 basechar 0
AnchorPoint: "Anchor-10" 705 1327 basechar 0
LayerCount: 2
Fore
SplineSet
736 1029 m 0
 986 1029 1112 962 1112 828 c 0
 1112 722 1067 623 976 528 c 1
 1006 506 1118 495 1290 495 c 6
 1329 495 l 6
 1346 495 1354 431 1354 303 c 6
 1354 171 l 6
 1354 57 1346 0 1329 0 c 6
 1301 0 l 6
 1031 0 838 107 741 322 c 1
 457 220 315 89 315 -72 c 0
 315 -227 457 -302 731 -302 c 0
 889 -302 1028 -291 1147 -268 c 0
 1227 -255 1184 -334 1155 -387 c 2
 1037 -594 l 2
 1001 -656 950 -680 882 -690 c 0
 841 -696 794 -697 740 -697 c 0
 320 -697 86 -514 86 -111 c 0
 86 235 262 491 615 659 c 1
 563 678 462 697 311 717 c 1
 311 940 l 1
 408 999 549 1029 736 1029 c 0
EndSplineSet
EndChar

StartChar: uniFECB
Encoding: 65227 65227 214
GlifName: uniF_E_C_B_
Width: 1026
GlyphClass: 2
Flags: HW
AnchorPoint: "Anchor-10" 506 1398 basechar 0
AnchorPoint: "Anchor-7" 508 -201 basechar 0
LayerCount: 2
Fore
SplineSet
95 710 m 0
 95 888 248 1170 516 1170 c 0
 652 1170 789 1105 885 994 c 1
 812 785 l 1
 715 826 647 844 585 844 c 0
 405 844 316 723 316 696 c 0
 316 648 459 536 526 536 c 1
 893 619 l 2
 944 631 981 616 968 564 c 2
 880 193 l 1
 552 90 265 0 75 0 c 2
 -5 0 l 2
 -42 0 -60 57 -60 171 c 2
 -60 303 l 2
 -60 431 -42 495 -5 495 c 2
 162 495 l 1
 118 563 95 634 95 710 c 0
EndSplineSet
EndChar

StartChar: uniFECC
Encoding: 65228 65228 215
GlifName: uniF_E_C_C_
Width: 959
GlyphClass: 2
Flags: HW
AnchorPoint: "Anchor-10" 511 1285 basechar 0
AnchorPoint: "Anchor-7" 500 -201 basechar 0
LayerCount: 2
Fore
SplineSet
534 1026 m 0
 785 1026 911 963 911 834 c 0
 911 766 857 671 749 552 c 5
 806 505 906 495 944 495 c 2
 964 495 l 2
 981 495 989 431 989 303 c 2
 989 171 l 2
 989 57 981 0 964 0 c 2
 941 0 l 2
 762 0 670 52 560 186 c 1
 421 52 251 0 76 0 c 2
 -5 0 l 2
 -42 0 -60 57 -60 171 c 2
 -60 303 l 2
 -60 431 -42 495 -5 495 c 2
 124 495 l 2
 299 495 386 514 457 553 c 1
 400 651 284 705 110 714 c 1
 110 937 l 1
 207 996 349 1026 534 1026 c 0
EndSplineSet
EndChar

StartChar: uniFEDA
Encoding: 65242 65242 229
GlifName: uniF_E_D_A_
Width: 1950
GlyphClass: 2
Flags: HW
AnchorPoint: "Anchor-10" 970 1535 basechar 0
AnchorPoint: "Anchor-7" 884 -200 basechar 0
LayerCount: 2
Fore
SplineSet
891 868 m 4
 965 868 1076 885 1076 944 c 4
 1076 974 1031 998 940 1018 c 4
 827 1042 771 1107 771 1215 c 4
 771 1343 878 1417 1089 1446 c 4
 1123 1452 1142 1441 1132 1411 c 6
 1096 1307 l 5
 933 1291 850 1257 850 1207 c 4
 850 1177 895 1154 986 1138 c 4
 1104 1117 1166 1061 1166 944 c 4
 1166 798 1043 730 887 730 c 4
 810 730 745 741 671 765 c 5
 684 906 l 5
 756 881 825 868 891 868 c 4
1505 688 m 0
 1505 859 1478 1117 1441 1371 c 1
 1774 1573 l 2
 1800 1588 1812 1574 1812 1531 c 2
 1812 741 l 2
 1812 577 1853 495 1937 495 c 2
 1955 495 l 2
 1972 495 1980 431 1980 303 c 2
 1980 171 l 2
 1980 57 1972 0 1955 0 c 2
 1927 0 l 2
 1761 0 1651 54 1596 162 c 1
 1467 54 1219 0 852 0 c 0
 397 0 78 120 78 539 c 0
 78 694 116 846 191 994 c 1
 346 938 l 1
 326 866 316 805 316 756 c 0
 316 550 554 491 882 491 c 0
 1286 491 1428 531 1478 588 c 0
 1504 618 1505 652 1505 688 c 0
EndSplineSet
EndChar

StartChar: uniFEDB
Encoding: 65243 65243 230
GlifName: uniF_E_D_B_
Width: 950
GlyphClass: 2
Flags: HW
AnchorPoint: "Anchor-10" 322 1582 basechar 0
AnchorPoint: "Anchor-7" 335 -252 basechar 0
LayerCount: 2
Fore
SplineSet
-5 0 m 2
 -42 0 -60 57 -60 171 c 2
 -60 303 l 2
 -60 431 -42 495 -5 495 c 2
 107 495 l 2
 308 495 442 532 442 605 c 0
 442 674 236 837 8 1005 c 1
 84 1348 l 1
 858 1597 l 1
 893 1609 902.576419214 1603.3231441 898 1569 c 2
 856 1254 l 1
 418 1115 l 1
 642 933 754 745 754 545 c 0
 754 181 559 0 109 0 c 2
 -5 0 l 2
EndSplineSet
EndChar

StartChar: uniFEDC
Encoding: 65244 65244 231
GlifName: uniF_E_D_C_
Width: 1191
GlyphClass: 2
Flags: HW
AnchorPoint: "Anchor-10" 322 1582 basechar 0
AnchorPoint: "Anchor-7" 405 -187 basechar 0
LayerCount: 2
Fore
SplineSet
418 1115 m 1
 472 1068 617 932 857 705 c 0
 1006 565 1099 495 1177 495 c 2
 1196 495 l 2
 1213 495 1221 431 1221 303 c 2
 1221 171 l 2
 1221 57 1213 0 1196 0 c 2
 1176 0 l 2
 997 0 846 96 684 288 c 1
 596 96 409 0 104 0 c 2
 -5 0 l 2
 -42 0 -60 57 -60 171 c 2
 -60 303 l 2
 -60 431 -42 495 -5 495 c 2
 107 495 l 2
 313 495 442 535 442 605 c 0
 442 673 236 837 8 1005 c 1
 84 1348 l 1
 858 1597 l 1
 893 1609 902.576171875 1603.32324219 898 1569 c 2
 856 1254 l 1
 418 1115 l 1
EndSplineSet
EndChar

StartChar: uniFEDE
Encoding: 65246 65246 233
GlifName: uniF_E_D_E_
Width: 1470
GlyphClass: 2
Flags: HW
AnchorPoint: "Anchor-10" 566 1040 basechar 0
AnchorPoint: "Anchor-7" 703 -763 basechar 0
LayerCount: 2
Fore
SplineSet
701 -567 m 0
 318 -567 77 -336 77 31 c 0
 77 217 120 389 204 549 c 1
 381 494 l 1
 347 379 329 283 329 208 c 0
 329 -8 475 -96 708 -96 c 0
 880 -96 1047 -21 1047 159 c 0
 1047 367 988 900 935 1371 c 1
 1234 1553 l 1
 1271 1574 1298 1570 1300 1513 c 2
 1333 664 l 2
 1338 551 1375 495 1443 495 c 2
 1475 495 l 2
 1492 495 1500 431 1500 303 c 2
 1500 171 l 2
 1500 57 1492 0 1475 0 c 2
 1443 0 l 2
 1395 0 1353 14 1318 41 c 1
 1289 -338 1095 -567 701 -567 c 0
EndSplineSet
EndChar

StartChar: uniFEDF
Encoding: 65247 65247 234
GlifName: uniF_E_D_F_
Width: 610
GlyphClass: 2
Flags: HW
AnchorPoint: "Anchor-10" 278 1633 basechar 0
AnchorPoint: "Anchor-7" 183 -220 basechar 0
LayerCount: 2
Fore
SplineSet
-5 495 m 2
 17 495 l 2
 134 495 192 526 192 588 c 0
 192 754 158 1014 107 1373 c 1
 419 1566 l 2
 450 1584 472 1582 475 1533 c 0
 494 1207 517 771 517 553 c 0
 517 202 372 0 31 0 c 2
 -5 0 l 2
 -42 0 -60 57 -60 171 c 2
 -60 303 l 2
 -60 431 -42 495 -5 495 c 2
EndSplineSet
EndChar

StartChar: uniFEE0
Encoding: 65248 65248 235
GlifName: uniF_E_E_0
Width: 651
GlyphClass: 2
Flags: HW
AnchorPoint: "Anchor-10" 318 1633 basechar 0
AnchorPoint: "Anchor-7" 284 -217 basechar 0
LayerCount: 2
Fore
SplineSet
-5 495 m 2
 58 495 l 2
 152 495 199 559 199 685 c 0
 199 887 175 1107 142 1368 c 1
 464 1570 l 2
 496 1591 517 1583 517 1530 c 2
 517 727 l 2
 517 572 553 495 626 495 c 2
 656 495 l 2
 673 495 681 431 681 303 c 2
 681 171 l 2
 681 57 673 0 656 0 c 2
 615 0 l 2
 489 0 393 57 327 170 c 1
 243 57 154 0 57 0 c 2
 -5 0 l 2
 -42 0 -60 57 -60 171 c 2
 -60 303 l 2
 -60 431 -42 495 -5 495 c 2
EndSplineSet
EndChar

StartChar: uniFEE2
Encoding: 65250 65250 237
GlifName: uniF_E_E_2
Width: 1335
GlyphClass: 2
Flags: HW
AnchorPoint: "Anchor-10" 644 1202 basechar 0
AnchorPoint: "Anchor-7" 272 -736 basechar 0
LayerCount: 2
Fore
SplineSet
868 174 m 0
 941 174 978 204 978 262 c 0
 978 284.288323382 964.853510118 317.381212715 927.000144006 345.682682829 c 6
 742 484 l 5
 740 449 740 416 740 387 c 0
 740 263 749 174 868 174 c 0
1322 495 m 2
 1340 495 l 2
 1357 495 1365 431 1365 303 c 2
 1365 171 l 2
 1365 57 1357 0 1340 0 c 2
 1326 0 l 2
 1275 0 1220 23 1162 68 c 1
 1099 -113 996 -203 852 -203 c 0
 597 -203 519 -21 519 280 c 0
 519 312 519 346 521 383 c 1
 457 360 403 317 360 252 c 1
 375 -279 l 2
 377 -345 331 -428 239 -529 c 0
 113 -668 101 -640 95 -543 c 0
 83 -345 76 -100 76 102 c 0
 76 419 176 725 554 777 c 1
 574 869 606 992 696 926 c 2
 1203 557 l 2
 1260 516 1299 495 1322 495 c 2
EndSplineSet
EndChar

StartChar: uniFEE3
Encoding: 65251 65251 238
GlifName: uniF_E_E_3
Width: 1045
GlyphClass: 2
Flags: HW
AnchorPoint: "Anchor-10" 544 1199 basechar 0
AnchorPoint: "Anchor-7" 529 -259 basechar 0
LayerCount: 2
Fore
SplineSet
-5 0 m 2
 -42 0 -60 57 -60 171 c 2
 -60 303 l 2
 -60 431 -42 495 -5 495 c 2
 31 495 l 2
 114 495 188 539 252 627 c 0
 362 778 487 949 627 949 c 0
 841 949 982 668 982 411 c 0
 982 105 748 -16 667 -16 c 0
 575 -16 453 49 302 179 c 1
 201 60 102 0 7 0 c 2
 -5 0 l 2
707 421 m 0
 739 421 755 440 755 479 c 0
 755 555 678 664 619 664 c 0
 588 664 548 628 498 557 c 1
 588 466 657 421 707 421 c 0
EndSplineSet
EndChar

StartChar: uniFEE4
Encoding: 65252 65252 239
GlifName: uniF_E_E_4
Width: 1145
GlyphClass: 2
Flags: HW
AnchorPoint: "Anchor-10" 591 1181 basechar 0
AnchorPoint: "Anchor-7" 513 -270 basechar 0
LayerCount: 2
Fore
SplineSet
478 500 m 1
 568 409 637 363 687 363 c 0
 719 363 735 382 735 421 c 0
 735 497 657 606 598 606 c 0
 567 606 528 571 478 500 c 1
-5 495 m 2
 31 495 l 2
 127 495 197 525 241 586 c 0
 342 724 484 887 620 887 c 0
 754 887 866 740 949 592 c 0
 986 527 1047 495 1132 495 c 2
 1150 495 l 2
 1167 495 1175 431 1175 303 c 2
 1175 171 l 2
 1175 57 1167 0 1150 0 c 2
 1126 0 l 2
 1060 0 982 31 895 92 c 1
 846 20 758 -83 643 -83 c 0
 551 -83 433 -17 289 115 c 1
 215 38 125 0 17 0 c 2
 -5 0 l 2
 -42 0 -60 57 -60 171 c 2
 -60 303 l 2
 -60 431 -42 495 -5 495 c 2
EndSplineSet
EndChar

StartChar: uniFEEA
Encoding: 65258 65258 245
GlifName: uniF_E_E_A_
Width: 1021
GlyphClass: 2
Flags: HW
AnchorPoint: "Anchor-10" 605 1496 basechar 0
AnchorPoint: "Anchor-7" 475 -208 basechar 0
LayerCount: 2
Fore
SplineSet
532 598 m 0
 552 598 573 598 595 599 c 1
 550 813 l 1
 400 763 287 704 287 656 c 0
 287 608 406 599 532 598 c 0
1026 0 m 2
 1007 0 l 2
 840 0 719 85 664 250 c 5
 498 110 l 1
 375 124 152.484263506 150.911970587 117 207 c 0
 86 256 80 368 80 530 c 0
 80 740 100 857 498 1067 c 1
 485 1126 l 1
 653 1309 l 2
 691.637304944 1351.08706431 719 1345 731 1274 c 2
 838 642 l 2
 854 544 913 495 997 495 c 2
 1026 495 l 2
 1043 495 1051 431 1051 303 c 2
 1051 171 l 2
 1051 57 1043 0 1026 0 c 2
EndSplineSet
EndChar

StartChar: uniFEEB
Encoding: 65259 65259 246
GlifName: uniF_E_E_B_
Width: 1282
GlyphClass: 2
Flags: HW
AnchorPoint: "Anchor-10" 542 1593 basechar 0
AnchorPoint: "Anchor-7" 594 -213 basechar 0
LayerCount: 2
Fore
SplineSet
608 795 m 0
 608 850 548 889 485 889 c 0
 432 889 345 822 345 757 c 0
 345 705 436 653 530 625 c 1
 571 648 608 730 608 795 c 0
784 745 m 1
 773 661 746 596 703 549 c 1
 799 508 889 472 940 463 c 1
 957 487 970 518 970 544 c 0
 970 639 873 695 784 745 c 1
947 110 m 0
 827 110 679 146 506 210 c 1
 363 70 217 0 68 0 c 2
 -5 0 l 2
 -42 0 -60 57 -60 171 c 2
 -60 303 l 2
 -60 431 -42 495 -5 495 c 0
 49 495 121 496 171 498 c 1
 134 540 116 591 116 652 c 0
 116 823 223 976 321 1036 c 1
 212 1084 l 1
 316 1405 l 1
 714 1202 l 2
 1044.26938677 1033.54601629 1205 825 1205 591 c 0
 1205 425 1074 110 947 110 c 0
EndSplineSet
EndChar

StartChar: uniFEEC
Encoding: 65260 65260 247
GlifName: uniF_E_E_C_
Width: 918
GlyphClass: 2
Flags: HW
AnchorPoint: "Anchor-7" 557 -761 basechar 0
AnchorPoint: "Anchor-10" 472 1348 basechar 0
LayerCount: 2
Fore
SplineSet
346 499 m 1
 555 513 589 543 589 592 c 0
 589 638 537 695 440 745 c 1
 390 683 356 566 346 499 c 1
758 651 m 0
 758 433 639 172.699996948 375 6 c 1
 426 -78 469 -136 540 -188 c 1
 550 77 736 495 916 495 c 2
 923 495 l 2
 940 495 948 431 948 303 c 2
 948 171 l 2
 948 57 940 0 923 0 c 2
 884 0 l 2
 787.560128284 0 754.00489478 -60.0277969214 754.00489478 -145.93105156 c 0
 754.00489478 -206.701562015 770.797837136 -280.421619367 794 -355 c 1
 584 -584 l 1
 361 -442 235 -252 154 0 c 1
 -5 0 l 2
 -42 0 -60 57 -60 171 c 2
 -60 303 l 2
 -60 431 -41 495 -5 495 c 2
 145 493 l 1
 161 644 326 1102 467 1102 c 0
 554 1102 758 902 758 651 c 0
EndSplineSet
EndChar

StartChar: uniFEEE
Encoding: 65262 65262 249
GlifName: uniF_E_E_E_
Width: 887
GlyphClass: 2
Flags: HW
AnchorPoint: "Anchor-7" 431 -696 basechar 0
AnchorPoint: "Anchor-10" 450 1159.4 basechar 0
LayerCount: 2
Fore
SplineSet
428 485 m 1
 482 485 522 485 583 486 c 1
 551 569 507 642 408 643 c 0
 350 642 301 605 301 542 c 0
 301 489 358 485 428 485 c 1
115 -362 m 0
 304 -230 435 -110 507 -2 c 1
 238 0 77 89 77 367 c 0
 77 623 196 964 445 964 c 0
 649 964 769 747 783 495 c 1
 892 495 l 2
 909 495 917 431 917 303 c 2
 917 171 l 2
 917 57 909 0 892 0 c 2
 777 0 l 1
 758 -168 687 -418 601 -483 c 0
 569 -507 514 -520 433 -520 c 2
 189 -520 l 2
 -40 -520 -17 -454 115 -362 c 0
EndSplineSet
EndChar

StartChar: uniFEFB
Encoding: 65275 65275 262
GlifName: uniF_E_F_B_
Width: 1246
GlyphClass: 3
Flags: HW
AnchorPoint: "Anchor-9" 194 1459 baselig 1
AnchorPoint: "Anchor-6" 899 -223 baselig 0
AnchorPoint: "Anchor-6" 281 -244 baselig 1
AnchorPoint: "Anchor-9" 943 1632 baselig 0
LayerCount: 2
Fore
SplineSet
420 387 m 1
 328 693 198 963 37 1180 c 1
 304 1394 l 2
 314 1402 322 1402 327 1393 c 0
 471 1156 601 854 717 490 c 1
 791 522 828 595 828 708 c 0
 828 870 785 1198 761 1378 c 1
 1080 1561 l 2
 1108 1576 1128 1574 1130 1533 c 0
 1141 1276 1153 941 1153 760 c 0
 1153 200 844 -53 283 -53 c 1
 40 279 l 2
 17 309 3 352 51 353 c 0
 183 357 302 363 420 387 c 1
EndSplineSet
LCarets2: 1 0
Ligature2: "'rlig' Required Ligatures in Arabic lookup 16 subtable" uniFEDF uniFE8E
EndChar

StartChar: uniFEFC
Encoding: 65276 65276 263
GlifName: uniF_E_F_C_
Width: 1281
GlyphClass: 3
Flags: HW
AnchorPoint: "Anchor-9" 194 1459 baselig 1
AnchorPoint: "Anchor-6" 899 -223 baselig 0
AnchorPoint: "Anchor-6" 281 -244 baselig 1
AnchorPoint: "Anchor-9" 943 1632 baselig 0
LayerCount: 2
Fore
SplineSet
717 490 m 1
 791 522 828 595 828 707 c 0
 828 840 800 1075 761 1378 c 1
 1085 1564 l 2
 1112 1579 1129 1570 1130 1530 c 2
 1152 809 l 2
 1158 597 1174 495 1257 495 c 2
 1286 495 l 2
 1303 495 1311 431 1311 303 c 2
 1311 171 l 2
 1311 57 1303 0 1286 0 c 2
 1257 0 l 2
 1109 0 1007 61 952 184 c 1
 810 27 587 -52 283 -53 c 1
 40 279 l 2
 18 310 3 352 51 353 c 0
 183 356 300 363 420 387 c 1
 328 693 198 963 37 1180 c 1
 304 1394 l 2
 314 1402 322 1402 327 1393 c 0
 471 1156 601 854 717 490 c 1
EndSplineSet
LCarets2: 1 0
Ligature2: "'rlig' Required Ligatures in Arabic lookup 16 subtable" uniFEE0 uniFE8E
EndChar

StartChar: arabic_dot
Encoding: 65536 -1 264
GlifName: arabic_dot
Width: 233
GlyphClass: 2
Flags: HW
LayerCount: 2
Fore
SplineSet
116 307.889648438 m 5
 296.889648438 127 l 5
 116 -53.8896484375 l 5
 -64.8896484375 127 l 5
 116 307.889648438 l 5
EndSplineSet
EndChar

StartChar: arabic_2dots
Encoding: 65537 -1 265
GlifName: arabic_2dots
Width: 605
VWidth: 2009
GlyphClass: 2
Flags: HW
LayerCount: 2
Fore
SplineSet
471.5 289.609375 m 5
 636.109375 125 l 5
 471.5 -39.609375 l 5
 306.890625 125 l 5
 471.5 289.609375 l 5
139.5 289.609375 m 1
 304.109375 125 l 1
 139.5 -39.609375 l 1
 -25.109375 125 l 1
 139.5 289.609375 l 1
EndSplineSet
EndChar

StartChar: arabic_3dots
Encoding: 65538 -1 266
GlifName: arabic_3dots
Width: 578
VWidth: 1975
GlyphClass: 2
Flags: HW
LayerCount: 2
Fore
SplineSet
295 509.182617188 m 5
 454.182617188 350 l 5
 295 190.817382812 l 5
 135.817382812 350 l 5
 295 509.182617188 l 5
464 260.182617188 m 5
 623.182617188 101 l 5
 464 -58.1826171875 l 5
 304.817382812 101 l 5
 464 260.182617188 l 5
126 260.182617188 m 5
 285.182617188 101 l 5
 126 -58.1826171875 l 5
 -33.1826171875 101 l 5
 126 260.182617188 l 5
EndSplineSet
EndChar

StartChar: arabic_3dots_a
Encoding: 65539 -1 267
GlifName: arabic_3dots_a
Width: 623
VWidth: 1966
GlyphClass: 2
Flags: HW
LayerCount: 2
Fore
SplineSet
316.5 -274.182617188 m 5
 157.317382812 -115 l 5
 316.5 44.1826171875 l 5
 475.682617188 -115 l 5
 316.5 -274.182617188 l 5
487.5 -22.1826171875 m 5
 328.317382812 137 l 5
 487.5 296.182617188 l 5
 646.682617188 137 l 5
 487.5 -22.1826171875 l 5
145.5 -22.1826171875 m 5
 -13.6826171875 137 l 5
 145.5 296.182617188 l 5
 304.682617188 137 l 5
 145.5 -22.1826171875 l 5
EndSplineSet
EndChar

StartChar: uni066E.fina
Encoding: 65540 -1 268
GlifName: uni066E_.fina
Width: 1943
GlyphClass: 2
Flags: HW
AnchorPoint: "Anchor-10" 1061 1822 basechar 0
AnchorPoint: "Anchor-7" 991 -347 basechar 0
LayerCount: 2
Fore
SplineSet
814 0 m 4
 388 0 78 136 78 539 c 4
 78 694 116 846 191 994 c 5
 346 938 l 5
 326 866 316 805 316 756 c 4
 316 552 550 491 864 491 c 4
 1285 491 1534 570 1599 765 c 1
 1743 734 l 1
 1737 709 1732 683 1732 653 c 0
 1732 548 1796 495 1923 495 c 2
 1948 495 l 2
 1965 495 1973 431 1973 303 c 2
 1973 171 l 2
 1973 57 1965 0 1948 0 c 2
 1931 0 l 2
 1732 0 1608 78 1559 235 c 1
 1398 78 1150 0 814 0 c 4
EndSplineSet
EndChar

StartChar: uni06A1.fina
Encoding: 65543 -1 269
GlifName: uni06A_1.fina
Width: 1891
GlyphClass: 2
Flags: HW
AnchorPoint: "Anchor-10" 767 2002 basechar 0
AnchorPoint: "Anchor-7" 954 -432 basechar 0
LayerCount: 2
Fore
SplineSet
1461 802 m 0
 1408 802 1330 731 1330 677 c 0
 1330 616 1439 556 1467 556 c 0
 1512 556 1605 640 1605 685 c 0
 1605 735 1513 802 1461 802 c 0
1214 501 m 1
 1148 575 1124 663 1124 744 c 0
 1124 944 1265 1164 1482 1164 c 0
 1649 1164 1810 958 1810 750 c 0
 1810 660 1781 580 1704 498 c 1
 1762 495 1772 495 1831 495 c 2
 1896 495 l 2
 1913 495 1921 431 1921 303 c 2
 1921 171 l 2
 1921 57 1913 0 1896 0 c 2
 1864 0 l 2
 1736 0 1604 12 1462 148 c 5
 1259 13 1040 0 814 0 c 0
 387 0 78 136 78 541 c 0
 78 696 116 847 191 994 c 1
 346 938 l 1
 326 866 316 805 316 756 c 0
 316 554 544 491 839 491 c 0
 980 491 1099 492 1214 501 c 1
EndSplineSet
EndChar

StartChar: uni06A1.init
Encoding: 65544 -1 270
GlifName: uni06A_1.init
Width: 844
GlyphClass: 2
Flags: HW
AnchorPoint: "Anchor-10" 487 2063 basechar 0
AnchorPoint: "Anchor-7" 435 -343 basechar 0
LayerCount: 2
Fore
SplineSet
-15 495 m 2
 169 495 l 2
 341 495 530 503 562 611 c 1
 496 601 437 596 386 596 c 0
 176 596 93 667 93 844 c 0
 93 1145 218 1360 424 1360 c 0
 681 1360 773 1007 773 683 c 0
 773 232 617 0 193 0 c 2
 -15 0 l 2
 -45 0 -60 57 -60 171 c 2
 -60 303 l 2
 -60 431 -45 495 -15 495 c 2
412 921 m 0
 459 921 525 925 560 931 c 1
 520 1022 468 1067 402 1067 c 0
 337 1067 288 1031 288 970 c 0
 288 925 340 921 412 921 c 0
EndSplineSet
EndChar

StartChar: uni06A1.medi
Encoding: 65545 -1 271
GlifName: uni06A_1.medi
Width: 907
GlyphClass: 2
Flags: HW
AnchorPoint: "Anchor-10" 758 1723 basechar 0
AnchorPoint: "Anchor-7" 698 -336 basechar 0
LayerCount: 2
Fore
SplineSet
-5 495 m 2
 77 495 l 2
 139 495 158 496 230 501 c 1
 164 575 140 663 140 744 c 0
 140 944 281 1164 498 1164 c 0
 665 1164 826 958 826 750 c 0
 826 660 797 580 720 498 c 1
 778 495 798 495 857 495 c 2
 912 495 l 2
 929 495 937 431 937 303 c 2
 937 171 l 2
 937 57 929 0 912 0 c 2
 880 0 l 2
 752 0 620 17 478 153 c 5
 325 17 176 0 38 0 c 2
 -5 0 l 2
 -42 0 -60 57 -60 171 c 2
 -60 303 l 2
 -60 431 -42 495 -5 495 c 2
477 802 m 0
 424 802 346 731 346 677 c 0
 346 616 455 556 483 556 c 0
 528 556 621 640 621 685 c 0
 621 735 529 802 477 802 c 0
EndSplineSet
EndChar

StartChar: uni066F.fina
Encoding: 65546 -1 272
GlifName: uni066F_.fina
Width: 1463
GlyphClass: 2
Flags: HW
AnchorPoint: "Anchor-10" 481 784 basechar 0
AnchorPoint: "Anchor-7" 402 -854 basechar 0
LayerCount: 2
Fore
SplineSet
1015 490 m 0
 1069 490 1109 490 1170 491 c 1
 1139 572 1095 648 998 648 c 0
 938 648 888 612 888 547 c 0
 888 494 945 490 1015 490 c 0
666 367 m 0
 666 626 785 964 1033 964 c 0
 1226 964 1357 740 1365 495 c 1
 1468 495 l 6
 1485 495 1493 431 1493 303 c 6
 1493 171 l 6
 1493 57 1485 0 1468 0 c 6
 1366 0 l 1
 1349 -382 1100 -567 731 -567 c 0
 320 -567 78 -364 78 30 c 0
 78 202 120 375 204 549 c 1
 381 494 l 1
 347 379 329 284 329 208 c 0
 329 -30 491 -97 753 -97 c 0
 940 -97 1078 -65 1167 -0 c 1
 1068 0 l 2
 795 0 666 117 666 367 c 0
EndSplineSet
EndChar

StartChar: arabic_gaf_bar
Encoding: 65550 -1 273
GlifName: arabic_gaf_bar
Width: 788
GlyphClass: 2
Flags: HW
LayerCount: 2
Fore
SplineSet
712 2053 m 6
 693 1940 l 1
 -4 1709 l 1
 30 1848 l 5
 691 2071 l 6
 709 2077 716 2071 712 2053 c 6
EndSplineSet
EndChar

StartChar: guillemotleft
Encoding: 171 171 283
GlifName: guillemotleft
Width: 922
Flags: HW
LayerCount: 2
Fore
SplineSet
425.088867188 455 m 0
 425.088867188 565.14453125 512.487304688 774.22265625 692.051757812 973.92578125 c 1
 813 835.122070312 l 1
 684.986328125 670.004882812 664.088867188 515.959960938 664.088867188 456 c 0
 664.088867188 389.483398438 682.8984375 243.053710938 812.959960938 74.8408203125 c 1
 692.056640625 -63.921875 l 1
 511.981445312 136.296875 425.088867188 344.459960938 425.088867188 455 c 0
65.0888671875 455 m 0
 65.0888671875 565.14453125 152.487304688 774.22265625 332.051757812 973.92578125 c 1
 453 835.122070312 l 1
 324.986328125 670.004882812 304.088867188 515.959960938 304.088867188 456 c 0
 304.088867188 389.483398438 322.8984375 243.053710938 452.959960938 74.8408203125 c 1
 332.056640625 -63.921875 l 1
 151.981445312 136.296875 65.0888671875 344.459960938 65.0888671875 455 c 0
EndSplineSet
EndChar

StartChar: guillemotright
Encoding: 187 187 284
GlifName: guillemotright
Width: 922
Flags: HW
LayerCount: 2
Fore
SplineSet
497 455 m 4
 497 344.460063984 410.107871342 136.296417499 230.032388855 -63.9214332801 c 5
 109.12890625 74.8408203125 l 5
 239.190429688 243.053710938 258 389.483269307 258 456 c 4
 258 515.959512509 237.102539062 670.004882812 109.088867188 835.122070312 c 5
 230.036753203 973.925446473 l 5
 409.601722188 774.222885641 497 565.144901769 497 455 c 4
857 455 m 4
 857 344.460063984 770.107871342 136.296417499 590.032388855 -63.9214332801 c 5
 469.12890625 74.8408203125 l 5
 599.190429688 243.053710938 618 389.483269307 618 456 c 4
 618 515.959512509 597.102539062 670.004882812 469.088867188 835.122070312 c 5
 590.036753203 973.925446473 l 5
 769.601722188 774.222885641 857 565.144901769 857 455 c 4
EndSplineSet
EndChar

StartChar: NameMe.304
Encoding: 65562 -1 293
GlifName: N_ameM_e.302
Width: 570
Flags: HW
LayerCount: 2
Fore
SplineSet
-5 495 m 2
 49 495 l 2
 130 495 136 554 136 673 c 0
 136 805 120 943 99 1118 c 1
 406 1325 l 2
 431 1342 454 1345 454 1302 c 2
 454 727 l 2
 454 590 450 495 546 495 c 2
 575 495 l 2
 592 495 600 431 600 303 c 2
 600 171 l 2
 600 57 592 0 575 0 c 2
 540 0 l 6
 422 0 357 57 290 170 c 1
 207 57 142 0 49 0 c 2
 -5 0 l 2
 -42 0 -60 57 -60 171 c 2
 -60 303 l 2
 -60 431 -42 495 -5 495 c 2
EndSplineSet
EndChar

StartChar: NameMe.303
Encoding: 65563 -1 294
GlifName: N_ameM_e.303
Width: 570
Flags: HW
AnchorPoint: "Anchor-10" 239 1528 basechar 0
AnchorPoint: "Anchor-7" 211 -229 basechar 0
LayerCount: 2
Fore
SplineSet
-5 495 m 2
 27 495 l 2
 145 495 153 536 153 640 c 0
 153 767 135 923 90 1285 c 1
 385 1485 l 2
 417 1507 434 1497 437 1447 c 0
 454 1148 477 722 477 550 c 0
 477 202 374 0 41 0 c 2
 -5 0 l 2
 -42 0 -60 57 -60 171 c 2
 -60 303 l 2
 -60 431 -42 495 -5 495 c 2
EndSplineSet
EndChar

StartChar: uniFDFC
Encoding: 65020 65020 296
GlifName: uniF_D_F_C_
Width: 2645
Flags: HW
LayerCount: 2
Fore
SplineSet
2352.55957031 786.940429688 m 5
 2486.04003906 638.419921875 2552.78027344 441.959960938 2552.78027344 198.5 c 4
 2552.78027344 -29.919921875 2469.12011719 -328.83984375 2376.05957031 -402.16015625 c 4
 2346.91992188 -425.66015625 2294.28027344 -436.940429688 2218.13964844 -436.940429688 c 6
 1988.78027344 -436.940429688 l 6
 1773.51953125 -436.940429688 1792.3203125 -370.200195312 1919.21972656 -288.419921875 c 4
 2178.66015625 -121.099609375 2342.21972656 110.139648438 2342.21972656 168.419921875 c 4
 2342.21972656 202.259765625 2294.28027344 272.759765625 2131.66015625 461.700195312 c 5
 2352.55957031 786.940429688 l 5
1864.77246094 220.748046875 m 5
 2019.52050781 66 l 5
 1864.77246094 -88.748046875 l 5
 1710.02539062 66 l 5
 1864.77246094 220.748046875 l 5
1524.05761719 220.748046875 m 5
 1678.8046875 66 l 5
 1524.05761719 -88.748046875 l 5
 1369.30957031 66 l 5
 1524.05761719 220.748046875 l 5
1227 913 m 5
 1227 1062 1216 1274 1197 1350 c 5
 1433 1530 l 6
 1461 1550 1482 1547 1487 1504 c 4
 1501 1375 1502 1176 1502 1021 c 4
 1502 839 1514 774 1661 774 c 6
 1716 774 l 6
 1790 774 1837 790 1837 850 c 4
 1837 882 1816 932 1771 1017 c 5
 1933 1203 l 6
 1954 1227 1976 1240 1991 1209 c 4
 2048 1097 2075 971 2075 827 c 4
 2075 556 1958 353 1719 353 c 6
 1619 353 l 6
 1306 353 1227 529 1227 913 c 5
1093 386 m 0
 1093 -19 921 -245 581 -245 c 1
 259 -244 70 -43 70 291 c 0
 70 427 103 566 169 710 c 1
 339 669 l 1
 313 584 300 511 300 448 c 0
 300 272 399 185 580 185 c 0
 747 185 831 252 831 391 c 0
 831 710 792 1036 749 1351 c 1
 974 1520 l 2
 1007 1545 1032 1560 1036 1498 c 0
 1060 1128 1093 614 1093 386 c 0
EndSplineSet
EndChar

StartChar: NameMe.306
Encoding: 65564 -1 297
GlifName: N_ameM_e.65564
Width: 562
Flags: HW
LayerCount: 2
Fore
SplineSet
423 982 m 0
 423 593 436 495 559 495 c 2
 567 495 l 2
 584 495 592 431 592 303 c 2
 592 171 l 2
 592 57 584 0 567 0 c 2
 493 0 l 2
 164 0 105 235 103 590 c 0
 100 916 78 1026 37 1221 c 1
 347 1421 l 2
 381 1442 395 1421 400 1366 c 0
 412 1242 423 1105 423 982 c 0
EndSplineSet
EndChar

StartChar: NameMe.65567
Encoding: 65565 -1 298
GlifName: N_ameM_e.65565
Width: 678
Flags: HW
LayerCount: 2
Fore
SplineSet
99.7474718346 -15.7179448492 m 1
 145.545634292 -36.5119840294 193.030126735 -50 246 -50 c 0
 334.968791555 -50 468.952747652 -23.0064909618 469.140082454 33.4066524033 c 0
 469.140082454 51.3018497045 383.837715308 76.7775164266 359.025791324 84.5312426714 c 0
 298.543513314 103.731965849 272 137.240588237 272 181 c 0
 272 293.476234508 403.672673903 456 546 456 c 0
 574.646259752 456 607.219422487 451.515480143 640.351644931 442.596677289 c 1
 636.897660882 405.440115808 627.860469127 358.715128719 614.46261254 303.289927468 c 1
 597.745111304 305.4887046 584.496635845 306 569 306 c 0
 493.99058169 306 444.135365299 273.065279959 403.386265623 220.996985925 c 1
 518.921918367 182.485101677 l 2
 565.790974896 167.781083943 588 134.726083418 588 80 c 0
 588 -104.364364052 432.471587457 -192 248 -192 c 0
 181.395569617 -192 114.911933688 -179.103087563 50.6444736453 -154.258546883 c 1
 99.7474718346 -15.7179448492 l 1
EndSplineSet
EndChar

StartChar: uni060D
Encoding: 1549 1549 299
Width: 828
VWidth: 4036
Flags: HW
LayerCount: 2
Fore
SplineSet
786 1385.40039062 m 1
 236.061523438 -225.098632812 l 1
 -21.9365234375 -147.51953125 l 1
 528.001953125 1462.97949219 l 1
 786 1385.40039062 l 1
EndSplineSet
EndChar

StartChar: NameMe.65541
Encoding: 65541 -1 300
Width: 628
Flags: HW
AnchorPoint: "Anchor-10" 273 1303 basechar 0
AnchorPoint: "Anchor-7" 321 -229 basechar 0
LayerCount: 2
Fore
SplineSet
-5 0 m 2
 -42 0 -60 57 -60 171 c 2
 -60 303 l 2
 -60 431 -42 495 -5 495 c 2
 107 495 l 2
 194 495 289 516 289 575 c 0
 289 624 236 744 203 811 c 1
 382 1033 l 2
 400 1055 416 1055 431 1032 c 0
 515 902 557 757 557 594 c 0
 557 268 413 0 77 0 c 2
 -5 0 l 2
EndSplineSet
EndChar

StartChar: NameMe.65542
Encoding: 65542 -1 301
Width: 688
Flags: HW
AnchorPoint: "Anchor-10" 336 1190 basechar 0
AnchorPoint: "Anchor-7" 310 -188 basechar 0
LayerCount: 2
Fore
SplineSet
-5 0 m 2
 -42 0 -60 57 -60 171 c 2
 -60 303 l 2
 -60 431 -42 495 -5 495 c 2
 134 495 l 2
 247 495 292 548 307 655 c 2
 327 793 l 1
 488 793 l 1
 509 658 l 2
 526 549 569 495 675 495 c 2
 693 495 l 2
 710 495 718 431 718 303 c 2
 718 171 l 2
 718 57 710 0 693 0 c 2
 672 0 l 2
 539 0 467 57 401 172 c 5
 321 57 233 0 111 0 c 2
 -5 0 l 2
EndSplineSet
EndChar

StartChar: uniFBFD.compact
Encoding: 65575 -1 321
Width: 1389
Flags: HW
AnchorPoint: "Anchor-7" 730 -740 basechar 0
AnchorPoint: "Anchor-10" 713 771 basechar 0
LayerCount: 2
Fore
SplineSet
743 -113 m 0
 1037 -113 1141 -21 1141 -5 c 0
 1141 14 989 33 880 46 c 0
 824 53 796 73 808 116 c 2
 913 495 l 5
 1394 495 l 2
 1411 495 1419 431 1419 303 c 2
 1419 171 l 2
 1419 57 1411 0 1394 0 c 2
 1370 0 l 1
 1381 -22 1386 -51 1386 -87 c 0
 1386 -394 1047 -567 711 -567 c 0
 309 -567 77 -358 77 31 c 0
 77 203 120 376 204 549 c 1
 381 494 l 1
 347 379 329 283 329 208 c 0
 329 -28 506 -113 743 -113 c 0
EndSplineSet
EndChar

StartChar: uniFD3E
Encoding: 64830 64830 326
Width: 1506
Flags: HW
LayerCount: 2
Fore
SplineSet
730 691 m 0
 730 668 744 649 771 649 c 0
 799 649 813 668 813 692 c 0
 813 716 799 733 771 733 c 0
 744 733 730 715 730 691 c 0
748 218 m 0
 776 95 832 -22 915 -130 c 1
 869 -10 816 168 816 230 c 0
 816 252 825 272 842 289 c 2
 883 331 l 1
 901 348 922 357 946 357 c 2
 1105 357 l 1
 1105 1025 l 1
 946 1025 l 1
 909 1027 897 1038 883 1051 c 2
 839 1096 l 2
 822 1113 813 1133 813 1156 c 0
 813 1223 875 1444 929 1579 c 1
 830 1457 765 1314 736 1151 c 0
 733 1133 725 1118 712 1105 c 2
 658 1051 l 2
 641 1034 620 1025 596 1025 c 2
 436 1025 l 1
 436 866 l 2
 436 841 428 821 411 804 c 2
 298 691 l 1
 411 578 l 2
 428 561 436 540 436 516 c 2
 436 357 l 1
 596 357 l 1
 623 355 643 346 658 331 c 2
 723 266 l 2
 735 254 743 238 748 218 c 0
989 691 m 0
 989 569 892 473 771 473 c 0
 652 473 554 572 554 691 c 0
 554 802 652 909 771 909 c 0
 895 909 989 811 989 691 c 0
1289 1815 m 1
 1147 1686 1050 1482 999 1206 c 9
 1003 1201 l 25
 1193 1201 l 2
 1237 1201 1281 1165 1281 1113 c 2
 1281 269 l 2
 1281 235 1249 181 1193 181 c 2
 1007 181 l 25
 1003 176 l 17
 1055 -82 1147 -264 1277 -369 c 0
 1352 -429 1267 -494 1209 -526 c 1
 878 -428 670 -208 581 159 c 1
 559 181 l 1
 348 181 l 1
 303 182 260 221 260 269 c 2
 260 480 l 1
 111 629 l 2
 90 650 80 670 80 691 c 0
 80 712 90 732 111 753 c 2
 260 902 l 1
 260 1113 l 2
 260 1158 301 1201 348 1201 c 2
 559 1201 l 1
 569 1211 l 1
 651 1610 860 1859 1196 1957 c 0
 1286 1987 1303 1886 1289 1815 c 1
EndSplineSet
EndChar

StartChar: uniFD3F
Encoding: 64831 64831 327
Width: 1506
Flags: HW
LayerCount: 2
Fore
SplineSet
200 1815 m 1
 186 1886 203 1987 293 1957 c 0
 629 1859 838 1610 920 1211 c 1
 930 1201 l 1
 1141 1201 l 2
 1188 1201 1229 1158 1229 1113 c 2
 1229 902 l 1
 1378 753 l 2
 1399 732 1409 712 1409 691 c 0
 1409 670 1399 650 1378 629 c 2
 1229 480 l 1
 1229 269 l 2
 1229 221 1186 182 1141 181 c 1
 930 181 l 1
 908 159 l 1
 819 -208 611 -428 280 -526 c 1
 222 -494 137 -429 212 -369 c 0
 342 -264 434 -82 486 176 c 9
 482 181 l 25
 296 181 l 2
 240 181 208 235 208 269 c 2
 208 1113 l 2
 208 1165 252 1201 296 1201 c 2
 486 1201 l 25
 490 1206 l 17
 439 1482 342 1686 200 1815 c 1
500 690 m 0
 500 810 597 909 719 909 c 0
 838 909 935 802 935 691 c 0
 935 572 837 473 718 473 c 0
 597 473 500 568 500 690 c 0
741 218 m 0
 746 238 754 254 766 266 c 2
 831 331 l 2
 846 346 866 355 893 357 c 1
 1053 357 l 1
 1053 516 l 2
 1053 540 1061 561 1078 578 c 2
 1191 691 l 1
 1078 804 l 2
 1061 821 1053 841 1053 866 c 2
 1053 1025 l 1
 893 1025 l 2
 869 1025 848 1034 831 1051 c 2
 777 1105 l 2
 764 1118 756 1133 753 1151 c 0
 724 1314 659 1457 560 1579 c 1
 614 1444 676 1223 676 1156 c 0
 676 1133 667 1113 650 1096 c 2
 606 1051 l 2
 592 1038 580 1027 543 1025 c 1
 384 1025 l 1
 384 357 l 1
 543 357 l 2
 567 357 588 348 606 331 c 1
 647 289 l 2
 664 272 673 252 673 230 c 0
 673 168 620 -10 574 -130 c 1
 657 -22 713 95 741 218 c 0
760 691 m 0
 760 715 746 733 719 733 c 0
 691 733 677 716 677 692 c 0
 677 668 691 649 719 649 c 0
 746 649 760 668 760 691 c 0
EndSplineSet
EndChar
